<svg width="80" height="80" viewBox="0 0 42 42" fill="none" xmlns="http://www.w3.org/2000/svg">
<path d="M19.4553 18.4042C20.4681 18.1045 21.5319 18.1045 22.5447 18.4042C24.5418 18.9952 28.3249 20.3285 33 23C36.5625 25.0357 39.0889 26.8124 40.7112 28.0664C42.022 29.0798 42.022 30.9202 40.7112 31.9336C39.0889 33.1876 36.5625 34.9643 33 37C28.3249 39.6715 24.5418 41.0048 22.5447 41.5958C21.5319 41.8955 20.4681 41.8955 19.4553 41.5958C17.4582 41.0048 13.6752 39.6715 9.00001 37C5.43756 34.9643 2.91111 33.1876 1.28886 31.9336C-0.0219861 30.9202 -0.0219861 29.0798 1.28885 28.0664C2.91111 26.8124 5.43756 25.0357 9.00001 23C13.6751 20.3285 17.4582 18.9952 19.4553 18.4042Z" fill="#D8DCDF"/>
<path d="M19.4553 9.4042C20.4681 9.1045 21.5319 9.1045 22.5447 9.4042C24.5418 9.9952 28.3249 11.3285 33 14C36.5625 16.0357 39.0889 17.8124 40.7112 19.0664C42.022 20.0798 42.022 21.9202 40.7112 22.9336C39.0889 24.1876 36.5625 25.9643 33 28C28.3249 30.6715 24.5418 32.0048 22.5447 32.5958C21.5319 32.8955 20.4681 32.8955 19.4553 32.5958C17.4582 32.0048 13.6752 30.6715 9.00001 28C5.43756 25.9643 2.91111 24.1876 1.28886 22.9336C-0.0219861 21.9202 -0.0219861 20.0798 1.28885 19.0664C2.91111 17.8124 5.43756 16.0357 9.00001 14C13.6751 11.3285 17.4582 9.9952 19.4553 9.4042Z" fill="#717E86"/>
<path d="M19.4553 0.40418C20.4681 0.10449 21.5319 0.10449 22.5447 0.40418C24.5418 0.99516 28.3249 2.32849 33 5C36.5625 7.0357 39.0889 8.8124 40.7112 10.0664C42.022 11.0798 42.022 12.9202 40.7112 13.9336C39.0889 15.1876 36.5625 16.9643 33 19C28.3249 21.6715 24.5418 23.0048 22.5447 23.5958C21.5319 23.8955 20.4681 23.8955 19.4553 23.5958C17.4582 23.0048 13.6752 21.6715 9.00001 19C5.43756 16.9643 2.91111 15.1876 1.28886 13.9336C-0.0219861 12.9202 -0.0219861 11.0798 1.28885 10.0664C2.91111 8.8124 5.43756 7.0357 9.00001 5C13.6751 2.32849 17.4582 0.99516 19.4553 0.40418Z" fill="#D8DCDF"/>
</svg>
