<svg width="80" height="80" viewBox="0 0 41 41" fill="none" xmlns="http://www.w3.org/2000/svg">
<path d="M22.1416 0.06042C22.1416 0.06042 24.4539 0.95 28.7039 5.225C32.9383 9.4843 33.8263 11.8143 33.8328 11.8313C33.936 13.8609 34 16.2345 34 19C34 27.2512 33.43 32.014 32.9501 34.5616C32.6419 36.1983 31.3722 37.3201 29.7258 37.4988C27.5032 37.74 23.5813 38 17 38C10.4187 38 6.4968 37.74 4.27425 37.4988C2.62776 37.3201 1.35814 36.1983 1.04986 34.5616C0.56998 32.014 0 27.2512 0 19C0 10.7488 0.56998 5.98604 1.04986 3.43837C1.35814 1.8017 2.62775 0.67991 4.27424 0.5012C6.4968 0.25997 10.4187 0 17 0C18.9358 0 20.6416 0.02253 22.1416 0.06042Z" fill="#D8DCDF"/>
<path d="M33.8332 11.8315C31.1136 12.5195 27.9027 12.5652 25.1293 11.713C23.9568 11.3527 23.0426 10.4339 22.6469 9.2667C21.661 6.3591 21.4175 2.80002 22.142 0.0605469C22.142 0.0605469 24.4543 0.950127 28.7043 5.22513C32.9543 9.5001 33.8332 11.8315 33.8332 11.8315Z" fill="#717E86"/>
<path d="M29.2525 23.0147C29.9871 21.6618 32.0129 21.6618 32.7475 23.0147L34.869 26.9221L39.41 27.7763C40.9092 28.0583 41.5152 29.7934 40.4935 30.8789L37.2601 34.3143L37.8506 38.8856C38.043 40.3744 36.4227 41.4685 35.0177 40.7986L31 38.8829L26.9823 40.7986C25.5773 41.4685 23.957 40.3744 24.1494 38.8856L24.7399 34.3143L21.5065 30.8789C20.4848 29.7934 21.0908 28.0583 22.59 27.7763L27.131 26.9221L29.2525 23.0147Z" fill="#717E86"/>
</svg>
