<svg width="80" height="80" viewBox="0 0 40 40" fill="none" xmlns="http://www.w3.org/2000/svg">
<path d="M0.65388 4.57316C0.84496 2.92575 1.84441 1.56573 3.46374 1.20762C5.9896 0.64902 10.8855 0 20 0C29.1145 0 34.0104 0.64902 36.5363 1.20762C38.1556 1.56574 39.155 2.92575 39.3461 4.57316C39.6351 7.0644 40 11.1673 40 16C40 25.0284 35.2351 33.4764 27.2074 37.6079C24.5258 38.988 21.9087 40 20 40C18.0913 40 15.4742 38.988 12.7926 37.6079C4.76493 33.4764 0 25.0284 0 16C0 11.1673 0.36493 7.0644 0.65388 4.57316Z" fill="#D8DCDF"/>
<path d="M19.2225 25.5408C20.4665 25.5408 21.365 25.3233 21.9179 24.8883C22.4939 24.4534 22.7819 23.9205 22.7819 23.2898C22.7819 22.7244 22.563 22.2677 22.1253 21.9197C21.6875 21.5717 21.031 21.2673 20.1555 21.0063L18.2549 20.4191C17.3103 20.1363 16.4579 19.8319 15.6976 19.5056C14.9374 19.1794 14.2923 18.788 13.7624 18.3312C13.2325 17.8745 12.8179 17.3308 12.5184 16.7001C12.2189 16.0694 12.0691 15.3191 12.0691 14.4492C12.0691 12.9703 12.5529 11.7415 13.5205 10.7629C14.4881 9.7842 15.8704 9.1317 17.6674 8.8055V7.6134C17.6674 6.8018 18.2257 6.0779 19.0353 6.0205C19.2258 6.007 19.4156 6 19.6026 6C20.455 6 21.0655 6.1414 21.4341 6.4241C21.8258 6.7068 22.0216 7.2179 22.0216 7.9573V8.675C23.496 8.8273 24.694 9.1644 25.6155 9.6863C26.5371 10.1865 26.9978 10.8499 26.9978 11.6763C26.9978 12.1034 26.8711 12.4938 26.6572 12.8408C26.2294 13.5346 25.274 13.4894 24.5091 13.2078C24.2242 13.1029 23.9134 13.0056 23.5767 12.9159C22.7012 12.655 21.7451 12.5245 20.7084 12.5245C19.5565 12.5245 18.6926 12.7093 18.1166 13.079C17.5637 13.427 17.2873 13.8837 17.2873 14.4492C17.2873 14.9059 17.4716 15.2756 17.8402 15.5583C18.2318 15.8411 18.8193 16.102 19.6026 16.3413L21.5378 16.8959C23.6112 17.5048 25.2009 18.3095 26.3067 19.3099C27.4356 20.3103 28 21.6587 28 23.3551C28 24.8557 27.4932 26.128 26.4795 27.1719C25.4658 28.1941 23.9798 28.8791 22.0216 29.2271V30.3866C22.0216 31.1982 21.4633 31.9222 20.6537 31.9796C20.4633 31.9931 20.2735 32 20.0864 32C19.234 32 18.6119 31.8586 18.2203 31.5759C17.8517 31.2932 17.6674 30.7821 17.6674 30.0427V29.3902C15.9856 29.2162 14.6148 28.8356 13.5551 28.2484C12.5184 27.6395 12 26.8783 12 25.9649C12 25.3762 12.2411 24.8729 12.6182 24.4599C13.1532 23.8738 14.0532 24.0155 14.7473 24.4002C15.1174 24.6053 15.5263 24.8006 15.9741 24.9862C16.9186 25.3559 18.0014 25.5408 19.2225 25.5408Z" fill="#717E86"/>
</svg>
