<svg width="80" height="80" viewBox="0 0 40 40" fill="none" xmlns="http://www.w3.org/2000/svg">
<path d="M0.65388 4.57316C0.84496 2.92575 1.84441 1.56573 3.46374 1.20762C5.9896 0.64902 10.8855 0 20 0C29.1145 0 34.0104 0.64902 36.5363 1.20762C38.1556 1.56573 39.155 2.92575 39.3461 4.57316C39.6351 7.0644 40 11.1673 40 16C40 25.0284 35.2351 33.4764 27.2074 37.6079C24.5258 38.988 21.9087 40 20 40C18.0913 40 15.4742 38.988 12.7926 37.6079C4.76493 33.4764 0 25.0284 0 16C0 11.1673 0.36493 7.0644 0.65388 4.57316Z" fill="#D8DCDF"/>
<path fill-rule="evenodd" clip-rule="evenodd" d="M14.2421 11.5076C14.379 8.4271 16.9164 6 20 6C23.0836 6 25.621 8.4271 25.7579 11.5076L25.8772 14.1936L26.0152 14.2053C27.6205 14.344 28.7535 15.4602 28.8753 17.0668C28.9469 18.0114 29 19.2888 29 21C29 22.7112 28.9469 23.9886 28.8753 24.9332C28.7535 26.5398 27.6205 27.656 26.0152 27.7947C24.7192 27.9067 22.7994 28 20 28C17.2006 28 15.2808 27.9067 13.9848 27.7947C12.3795 27.656 11.2465 26.5398 11.1247 24.9332C11.0531 23.9886 11 22.7112 11 21C11 19.4369 11.038 18.2358 11.0913 17.3196C11.1926 15.5805 12.3935 14.3458 14.1228 14.1918L14.2421 11.5076ZM21.7618 11.6852L21.8654 14.0151C21.2918 14.0054 20.6712 14 20 14C19.3295 14 18.7089 14.0054 18.1346 14.015L18.2382 11.6853C18.2801 10.7426 19.0565 10 20 10C20.9435 10 21.7199 10.7426 21.7618 11.6852ZM22 20C22 20.8178 21.5091 21.521 20.806 21.831L20.9468 23.083C20.9816 23.3923 20.931 23.7305 20.6515 23.8676C20.5002 23.9419 20.2893 24 20 24C19.7107 24 19.4998 23.9419 19.3485 23.8676C19.069 23.7305 19.0184 23.3923 19.0532 23.083L19.194 21.831C18.4909 21.521 18 20.8178 18 20C18 18.8954 18.8954 18 20 18C21.1046 18 22 18.8954 22 20Z" fill="#717E86"/>
</svg>
