<svg width="80" height="80" viewBox="0 0 48 48" fill="none" xmlns="http://www.w3.org/2000/svg">
<path d="M4.79093 2.18249C3.40492 2.3155 2.31553 3.40488 2.1825 4.79089C1.79128 8.86709 2.11876 12.6323 2.33305 14.4225C2.41565 15.1126 2.85227 15.7127 3.5306 15.8642C4.1288 15.9977 4.92932 16.0776 5.78735 15.8866C6.46577 15.7355 6.89942 15.1127 6.98399 14.4228C7.24448 12.2977 7.3295 9.8356 7.35725 8.45479C7.3693 7.85501 7.85511 7.3692 8.45489 7.35714C9.83568 7.3294 12.2978 7.24439 14.4228 6.98394C15.1127 6.89939 15.7355 6.46574 15.8866 5.78729C16.0776 4.92928 15.9977 4.12877 15.8642 3.53058C15.7127 2.85223 15.1126 2.41561 14.4225 2.33302C12.6322 2.11875 8.86713 1.7913 4.79093 2.18249Z" fill="#717E86"/>
<path d="M43.2091 2.18249C44.5951 2.3155 45.6845 3.40488 45.8175 4.79089C46.2087 8.86709 45.8812 12.6323 45.667 14.4225C45.5844 15.1126 45.1477 15.7127 44.4694 15.8642C43.8712 15.9977 43.0707 16.0776 42.2127 15.8866C41.5342 15.7355 41.1006 15.1127 41.016 14.4228C40.7555 12.2977 40.6705 9.8356 40.6428 8.45479C40.6307 7.85501 40.1449 7.3692 39.5451 7.35714C38.1643 7.3294 35.7022 7.24439 33.5772 6.98394C32.8873 6.89939 32.2645 6.46574 32.1134 5.78729C31.9224 4.92928 32.0023 4.12877 32.1358 3.53058C32.2873 2.85223 32.8874 2.41561 33.5775 2.33302C35.3678 2.11875 39.1329 1.7913 43.2091 2.18249Z" fill="#717E86"/>
<path d="M45.8175 43.2091C45.6845 44.5951 44.5951 45.6845 43.2091 45.8175C39.1329 46.2087 35.3678 45.8813 33.5775 45.667C32.8874 45.5844 32.2873 45.1478 32.1358 44.4694C32.0023 43.8712 31.9224 43.0707 32.1134 42.2127C32.2645 41.5343 32.8873 41.1006 33.5772 41.0161C35.7022 40.7556 38.1643 40.6706 39.5451 40.6429C40.1449 40.6308 40.6307 40.145 40.6428 39.5452C40.6705 38.1644 40.7555 35.7023 41.016 33.5772C41.1006 32.8873 41.5342 32.2645 42.2127 32.1134C43.0707 31.9224 43.8712 32.0023 44.4694 32.1358C45.1477 32.2873 45.5844 32.8874 45.667 33.5775C45.8812 35.3677 46.2087 39.1329 45.8175 43.2091Z" fill="#717E86"/>
<path d="M4.79093 45.8175C3.40492 45.6845 2.31553 44.5951 2.1825 43.2091C1.79128 39.1329 2.11876 35.3677 2.33305 33.5775C2.41565 32.8874 2.85226 32.2873 3.5306 32.1358C4.12879 32.0023 4.92932 31.9224 5.78735 32.1134C6.46577 32.2645 6.89942 32.8873 6.98398 33.5772C7.24448 35.7023 7.3295 38.1644 7.35725 39.5452C7.3693 40.145 7.85511 40.6308 8.45489 40.6429C9.83568 40.6706 12.2978 40.7556 14.4228 41.0161C15.1127 41.1006 15.7355 41.5343 15.8866 42.2127C16.0776 43.0707 15.9977 43.8712 15.8642 44.4694C15.7127 45.1478 15.1126 45.5844 14.4225 45.667C12.6322 45.8813 8.86713 46.2087 4.79093 45.8175Z" fill="#717E86"/>
<path d="M10 24C10 31.732 16.268 38 24 38C31.732 38 38 31.732 38 24C38 16.268 31.732 10 24 10C16.268 10 10 16.268 10 24Z" fill="#D8DCDF"/>
<path d="M23.5974 29.6555C24.5615 29.6555 25.2579 29.4924 25.6864 29.1662C26.1328 28.84 26.356 28.4403 26.356 27.9673C26.356 27.5432 26.1863 27.2007 25.8471 26.9397C25.5078 26.6787 24.999 26.4504 24.3205 26.2547L22.8476 25.8143C22.1155 25.6022 21.4549 25.3739 20.8656 25.1291C20.2765 24.8845 19.7765 24.5909 19.3659 24.2483C18.9552 23.9058 18.6339 23.498 18.4018 23.025C18.1697 22.552 18.0536 21.9893 18.0536 21.3368C18.0536 20.2277 18.4285 19.3061 19.1784 18.5721C19.9283 17.8381 20.9996 17.3487 22.3922 17.1041V16.21C22.3922 15.6013 22.8249 15.0584 23.4524 15.0153C23.6 15.0052 23.7471 14.9999 23.892 14.9999C24.5526 14.9999 25.0258 15.106 25.3114 15.318C25.615 15.53 25.7667 15.9134 25.7667 16.4679V17.0062C26.9094 17.1204 27.8379 17.3732 28.552 17.7647C29.2663 18.1398 29.6233 18.6374 29.6233 19.2572C29.6233 19.5775 29.5251 19.8703 29.3593 20.1305C29.0278 20.6509 28.2874 20.617 27.6946 20.4058C27.4738 20.3271 27.2329 20.2541 26.9719 20.1869C26.2934 19.9912 25.5525 19.8933 24.749 19.8933C23.8563 19.8933 23.1868 20.0319 22.7404 20.3092C22.3119 20.5702 22.0977 20.9127 22.0977 21.3368C22.0977 21.6794 22.2405 21.9566 22.5262 22.1687C22.8297 22.3808 23.285 22.5764 23.892 22.7559L25.3918 23.1719C26.9987 23.6285 28.2307 24.2321 29.0877 24.9824C29.9626 25.7327 30.4 26.744 30.4 28.0163C30.4 29.1417 30.0072 30.0959 29.2216 30.8788C28.436 31.6455 27.2844 32.1593 25.7667 32.4202V33.2899C25.7667 33.8986 25.3341 34.4416 24.7066 34.4846C24.5591 34.4947 24.412 34.4999 24.267 34.4999C23.6064 34.4999 23.1242 34.3939 22.8207 34.1819C22.5351 33.9698 22.3922 33.5865 22.3922 33.0319V32.5426C21.0888 32.4121 20.0265 32.1266 19.2052 31.6862C18.4018 31.2296 18 30.6586 18 29.9736C18 29.5321 18.1869 29.1546 18.4791 28.8449C18.8937 28.4053 19.5912 28.5116 20.1292 28.8001C20.416 28.9539 20.7329 29.1004 21.0799 29.2396C21.8119 29.5169 22.6511 29.6555 23.5974 29.6555Z" fill="#717E86"/>
</svg>
