<svg width="80" height="68" viewBox="0 0 40 34" fill="none" xmlns="http://www.w3.org/2000/svg">
<path d="M35.0172 30C36.445 30 37.7942 29.2509 38.3617 27.9406C39.4158 25.5065 40 22.8215 40 20C40 8.9543 31.0457 0 20 0C8.9543 0 0 8.9543 0 20C0 22.8215 0.58424 25.5065 1.63835 27.9406C2.20576 29.2509 3.55495 30 4.98281 30H35.0172Z" fill="#D8DCDF"/>
<path d="M25.4215 12.5303C25.5138 10.9346 23.5589 10.4016 22.8548 11.8305C21.4356 14.7105 19.6986 18.3916 18.1683 22.082C16.2934 22.6957 14.7536 24.2353 14.2059 26.3151C13.3484 29.5712 15.2475 32.918 18.4475 33.7905C21.6475 34.663 24.9367 32.7307 25.7941 29.4746C26.3418 27.3948 25.7649 25.278 24.4427 23.7926C24.9308 19.8182 25.2354 15.7465 25.4215 12.5303Z" fill="#717E86"/>
</svg>
