<svg width="80" height="82" viewBox="0 0 40 41" fill="none" xmlns="http://www.w3.org/2000/svg">
<path d="M19.1046 0.00884143C19.9547 0.0797714 20.954 0.215622 21.9173 0.471712C23.9818 1.02049 25.0572 3.07237 25.1868 5.21349C25.3499 7.91 25.2511 10.6491 25.1167 12.6728C28.3239 12.3851 31.5054 12.1575 34.3692 12.0203C37.3928 11.8755 39.9221 14.1655 39.9837 17.2054C40.0851 22.2098 39.7685 29.8293 37.478 36.0009C36.5787 38.424 34.1957 39.8538 31.6225 39.9379C19.58 40.3314 8 38.727 8 38.727V14.859C9.3444 14.6058 10.9027 14.3526 12.6047 14.1067C14.1271 9.8372 15.5668 4.83713 16.3347 2.06547C16.6845 0.802592 17.8041 -0.0996786 19.1046 0.00884143Z" fill="#D8DCDF"/>
<path d="M0.14275 38.3001C0.16946 39.3563 0.76494 40.3156 1.78529 40.5899C2.59149 40.8066 3.68062 41 5 41C6.3194 41 7.4085 40.8066 8.2147 40.5899C9.2351 40.3156 9.8305 39.3563 9.8573 38.3001C9.9137 36.0694 10 31.862 10 27C10 22.138 9.9137 17.9306 9.8573 15.6999C9.8305 14.6437 9.2351 13.6844 8.2147 13.4101C7.4085 13.1934 6.3194 13 5 13C3.68062 13 2.5915 13.1934 1.78529 13.4101C0.76494 13.6844 0.16946 14.6437 0.14275 15.6999C0.0863198 17.9306 0 22.138 0 27C0 31.862 0.0863198 36.0694 0.14275 38.3001Z" fill="#717E86"/>
</svg>
