<svg width="80" height="78" viewBox="0 0 40 39" fill="none" xmlns="http://www.w3.org/2000/svg">
<path d="M0 11C0 4.65649 4.53806 0.42 10.8764 0.16449C13.3325 0.0654802 16.3403 0 20 0C23.6597 0 26.6675 0.0654802 29.1236 0.16449C35.4619 0.42 40 4.65649 40 11C40 17.3435 35.4619 21.58 29.1236 21.8355C26.6675 21.9345 23.6597 22 20 22C16.3403 22 13.3325 21.9345 10.8764 21.8355C4.53807 21.58 0 17.3435 0 11Z" fill="#717E86"/>
<path d="M17.4141 14.3186C17.4851 13.2595 18.1255 12.2786 19.1812 12.0787C19.4337 12.0308 19.695 12 19.949 12C20.2136 12 20.4861 12.0335 20.7484 12.0847C21.7858 12.2876 22.4227 13.2454 22.5157 14.2856C22.6943 16.2847 22.9631 19.5655 22.9631 21.2045C22.9631 21.2045 26.6704 21.2045 30.305 22.2307C32.6226 22.885 34.0564 25.0261 33.9983 27.4055C33.9423 29.6992 33.5866 32.8155 32.385 36.0871C31.8335 37.5885 30.5265 38.6481 28.9177 38.8132C27.9007 38.9176 26.5384 39 24.7715 39C23.2151 39 21.9727 38.9361 21.0036 38.8495C19.1002 38.6795 17.4319 37.6923 16.1674 36.2772C13.664 33.4756 11.6544 30.756 10.5733 29.2245C9.99199 28.401 9.76529 26.5587 10.3103 25.7114C11.3957 24.0238 13.1252 24.8439 14.7395 26.0505C16.1451 27.1012 16.9349 27.8669 16.9349 27.8669C16.9349 22.2751 17.2377 16.9476 17.4141 14.3186Z" fill="#D8DCDF"/>
</svg>
