<svg width="24" height="24" viewBox="0 0 24 24" fill="none" xmlns="http://www.w3.org/2000/svg">
<g clip-path="url(#clip0_1925_1091)">
<path d="M23 10.9996C22.7348 10.9996 22.4804 10.8942 22.2929 10.7067C22.1054 10.5192 22 10.2648 22 9.99959C21.9979 7.87851 21.1544 5.84491 19.6545 4.34508C18.1547 2.84525 16.1211 2.00171 14 1.99959C13.7348 1.99959 13.4805 1.89424 13.2929 1.7067C13.1054 1.51916 13 1.26481 13 0.999593C13 0.734376 13.1054 0.480023 13.2929 0.292486C13.4805 0.10495 13.7348 -0.000407082 14 -0.000407082C16.6513 0.00250451 19.1931 1.05701 21.0679 2.93174C22.9426 4.80647 23.9971 7.34832 24 9.99959C24 10.2648 23.8947 10.5192 23.7071 10.7067C23.5196 10.8942 23.2652 10.9996 23 10.9996ZM20 9.99959C20 8.40829 19.3679 6.88217 18.2427 5.75695C17.1174 4.63173 15.5913 3.99959 14 3.99959C13.7348 3.99959 13.4805 4.10495 13.2929 4.29249C13.1054 4.48002 13 4.73438 13 4.99959C13 5.26481 13.1054 5.51916 13.2929 5.7067C13.4805 5.89424 13.7348 5.99959 14 5.99959C15.0609 5.99959 16.0783 6.42102 16.8284 7.17117C17.5786 7.92131 18 8.93873 18 9.99959C18 10.2648 18.1054 10.5192 18.2929 10.7067C18.4804 10.8942 18.7348 10.9996 19 10.9996C19.2652 10.9996 19.5196 10.8942 19.7071 10.7067C19.8947 10.5192 20 10.2648 20 9.99959ZM22.183 22.1636L23.093 21.1146C23.6722 20.5335 23.9975 19.7465 23.9975 18.9261C23.9975 18.1057 23.6722 17.3187 23.093 16.7376C23.062 16.7066 20.656 14.8556 20.656 14.8556C20.0786 14.3059 19.3116 13.9999 18.5143 14.001C17.7171 14.0021 16.9509 14.3103 16.375 14.8616L14.469 16.4676C12.9132 15.8237 11.4999 14.8788 10.3103 13.6871C9.12071 12.4955 8.17824 11.0805 7.53702 9.52359L9.13702 7.62359C9.68874 7.04777 9.99732 6.28147 9.99862 5.484C9.99993 4.68652 9.69385 3.91922 9.14402 3.34159C9.14402 3.34159 7.29102 0.938593 7.26002 0.907593C6.68947 0.333341 5.9159 0.00661493 5.10645 -0.0019923C4.29699 -0.0105995 3.51665 0.299603 2.93402 0.861593L1.78402 1.86159C-5.00998 9.74359 9.62002 24.2606 17.762 23.9996C18.5842 24.0044 19.399 23.8444 20.1583 23.529C20.9176 23.2137 21.6061 22.7494 22.183 22.1636V22.1636Z" fill="#717E86"/>
</g>
<defs>
<clipPath id="clip0_1925_1091">
<rect width="24" height="24" fill="white"/>
</clipPath>
</defs>
</svg>
