<svg id="Layer_1" data-name="Layer 1" xmlns="http://www.w3.org/2000/svg" viewBox="0 0 839.71 200.63"><defs><style>.cls-1,.cls-3,.cls-4{fill:#fff;}.cls-2{fill:#0284c7;}.cls-3{opacity:0.85;}.cls-4{opacity:0.7;}.cls-5{fill:#334155;}</style></defs><rect class="cls-1" width="839.71" height="200.63"/><path class="cls-2" d="M92.43,0h88.4a0,0,0,0,1,0,0V108.2A92.43,92.43,0,0,1,88.4,200.63H0a0,0,0,0,1,0,0V92.43A92.43,92.43,0,0,1,92.43,0Z"/><path class="cls-1" d="M91.82,29.29A65.42,65.42,0,0,0,26.4,94.7v76.65h4.1a21.71,21.71,0,0,0,21.71-21.71V94.7A39.73,39.73,0,0,1,91.82,55.09h40.87a21.69,21.69,0,0,0,21.7-21.7v-4.1Z"/><path class="cls-1" d="M46.17,93.87v25.8H83.43A21.71,21.71,0,0,0,105.14,98v-4.1Z"/><path class="cls-3" d="M134.17,119.61h13a0,0,0,0,1,0,0v13a12.82,12.82,0,0,1-12.82,12.82h-13a0,0,0,0,1,0,0v-13A12.82,12.82,0,0,1,134.17,119.61Z"/><path class="cls-1" d="M141.41,68.06h13a0,0,0,0,1,0,0V81a12.82,12.82,0,0,1-12.82,12.82h-13a0,0,0,0,1,0,0v-13A12.82,12.82,0,0,1,141.41,68.06Z"/><path class="cls-4" d="M85.89,145.54h13a0,0,0,0,1,0,0v13a12.82,12.82,0,0,1-12.82,12.82h-13a0,0,0,0,1,0,0v-13A12.82,12.82,0,0,1,85.89,145.54Z"/><path class="cls-5" d="M231.85,199.82V144.27h21.91q9.47,0,14.69,4.94t5.22,13.21a18,18,0,0,1-2.53,9.74,15.59,15.59,0,0,1-7.29,6.07l11.8,21.59h-13l-10.53-19.69h-8.57v19.69Zm11.74-29.13h8q10,0,10-8.27,0-8.55-10.06-8.54h-7.92Z"/><path class="cls-5" d="M300,200.63A22.14,22.14,0,0,1,289,198a17.71,17.71,0,0,1-7.14-7.43,27.09,27.09,0,0,1,0-22.69,18.45,18.45,0,0,1,7-7.57,20.42,20.42,0,0,1,10.67-2.71,21.06,21.06,0,0,1,9.94,2.33,17,17,0,0,1,7,7,24,24,0,0,1,2.61,11.78V182H290.79v0a10.24,10.24,0,0,0,2.55,7.35,9,9,0,0,0,6.88,2.69,9.9,9.9,0,0,0,5-1.22,6.63,6.63,0,0,0,3-3.61l10.69.71a14.6,14.6,0,0,1-6.18,9.27Q307.77,200.64,300,200.63Zm-9.24-25.84h17.49a8.48,8.48,0,0,0-2.39-6.13,8.18,8.18,0,0,0-6.13-2.42,8.51,8.51,0,0,0-6.32,2.5A9,9,0,0,0,290.79,174.79Z"/><path class="cls-5" d="M361.36,170l-10.58.65a6,6,0,0,0-2.2-3.44,7.3,7.3,0,0,0-4.77-1.44,8.59,8.59,0,0,0-4.54,1.12,3.34,3.34,0,0,0-1.83,3,3.07,3.07,0,0,0,1.18,2.52,9.55,9.55,0,0,0,4.11,1.66l7.53,1.52q12,2.46,12.05,11.28a11.39,11.39,0,0,1-2.4,7.19,15.72,15.72,0,0,1-6.58,4.81,25,25,0,0,1-9.58,1.72q-8.26,0-13.18-3.45a13.27,13.27,0,0,1-5.72-9.43l11.37-.6a5.88,5.88,0,0,0,2.5,3.86,9.07,9.07,0,0,0,5.06,1.3,8.91,8.91,0,0,0,4.9-1.2,3.57,3.57,0,0,0,1.88-3c-.05-2.06-1.83-3.45-5.34-4.15L338,182.49Q325.9,180.08,326,170.58a11,11,0,0,1,4.82-9.49c3.22-2.31,7.51-3.47,12.84-3.47s9.41,1.11,12.43,3.33A12.94,12.94,0,0,1,361.36,170Z"/><path class="cls-5" d="M391.76,158.16v8.68h-7.84V187c0,1.59.36,2.67,1.09,3.23a4.46,4.46,0,0,0,2.82.84,9.07,9.07,0,0,0,1.63-.15l1.24-.23,1.82,8.6c-.58.18-1.39.39-2.44.63a19.54,19.54,0,0,1-3.82.45q-6.3.27-10.11-2.73c-2.54-2-3.8-5-3.78-9.12v-21.7h-5.7v-8.68h5.7v-10h11.55v10Z"/><path class="cls-5" d="M411.15,200.61a15.46,15.46,0,0,1-9.9-3.12q-3.93-3.12-3.93-9.3a11.15,11.15,0,0,1,2.2-7.33,12.6,12.6,0,0,1,5.76-3.89,32.57,32.57,0,0,1,7.69-1.61,60,60,0,0,0,7.76-1.14c1.55-.4,2.33-1.27,2.33-2.61v-.16a5,5,0,0,0-1.61-4,6.74,6.74,0,0,0-4.57-1.41,8.25,8.25,0,0,0-5,1.36,6.35,6.35,0,0,0-2.44,3.44L398.79,170a14.26,14.26,0,0,1,5.92-9q4.74-3.33,12.22-3.33a25.43,25.43,0,0,1,8.68,1.46,14.46,14.46,0,0,1,6.52,4.57,12.5,12.5,0,0,1,2.48,8.07v28.1H423.66V194h-.33a12,12,0,0,1-4.54,4.74A14.55,14.55,0,0,1,411.15,200.61Zm3.31-8a8.92,8.92,0,0,0,6.24-2.21,7.09,7.09,0,0,0,2.44-5.49v-4.42a6.54,6.54,0,0,1-2.1.81c-1,.24-2,.44-3,.61s-2,.33-2.89.45a11.46,11.46,0,0,0-4.89,1.71,4.23,4.23,0,0,0-1.86,3.72,4.11,4.11,0,0,0,1.72,3.6A7.36,7.36,0,0,0,414.46,192.63Z"/><path class="cls-5" d="M468.78,182.08V158.16h11.55v41.66H469.24v-7.57h-.43a12.32,12.32,0,0,1-4.68,5.89,13.83,13.83,0,0,1-8,2.22A13.24,13.24,0,0,1,446,196.17q-3.89-4.18-3.91-11.48V158.16h11.55v24.47a8.46,8.46,0,0,0,2,5.83,6.76,6.76,0,0,0,5.23,2.14,8.08,8.08,0,0,0,5.55-2.17C468,187,468.8,184.87,468.78,182.08Z"/><path class="cls-5" d="M488,199.82V158.16h11.2v7.27h.43a10.85,10.85,0,0,1,3.81-5.87,10.11,10.11,0,0,1,6.2-2,11.48,11.48,0,0,1,3.12.41,10,10,0,0,1,2.58,1.11l-3.47,9.55a11.36,11.36,0,0,0-1.78-.69,7.58,7.58,0,0,0-2.16-.29A8.13,8.13,0,0,0,502,170a8.41,8.41,0,0,0-2.46,6.21v23.57Z"/><path class="cls-5" d="M532.64,200.61a15.42,15.42,0,0,1-9.89-3.12q-3.94-3.12-3.94-9.3a11.15,11.15,0,0,1,2.2-7.33,12.6,12.6,0,0,1,5.76-3.89,32.57,32.57,0,0,1,7.69-1.61,60,60,0,0,0,7.76-1.14c1.55-.4,2.33-1.27,2.33-2.61v-.16a5,5,0,0,0-1.61-4,6.74,6.74,0,0,0-4.57-1.41,8.25,8.25,0,0,0-5,1.36,6.35,6.35,0,0,0-2.44,3.44L520.28,170a14.26,14.26,0,0,1,5.92-9q4.74-3.33,12.22-3.33a25.43,25.43,0,0,1,8.68,1.46,14.46,14.46,0,0,1,6.52,4.57,12.5,12.5,0,0,1,2.49,8.07v28.1h-11V194h-.33a11.92,11.92,0,0,1-4.54,4.74A14.55,14.55,0,0,1,532.64,200.61Zm3.31-8a8.92,8.92,0,0,0,6.24-2.21,7.09,7.09,0,0,0,2.44-5.49v-4.42a6.54,6.54,0,0,1-2.1.81c-.95.24-2,.44-3,.61s-2,.33-2.89.45a11.46,11.46,0,0,0-4.89,1.71,4.23,4.23,0,0,0-1.86,3.72,4.11,4.11,0,0,0,1.72,3.6A7.36,7.36,0,0,0,536,192.63Z"/><path class="cls-5" d="M575.11,175.74v24.08H563.56V158.16h11v7.35h.48a11.9,11.9,0,0,1,4.66-5.76,14,14,0,0,1,7.88-2.13A13.66,13.66,0,0,1,598,161.81Q602,166,602,173.29v26.53H590.41V175.36a8.44,8.44,0,0,0-2-6,7,7,0,0,0-5.45-2.16,7.58,7.58,0,0,0-5.68,2.24A8.68,8.68,0,0,0,575.11,175.74Z"/><path class="cls-5" d="M633.2,158.16v8.68h-7.83V187c0,1.59.36,2.67,1.08,3.23a4.46,4.46,0,0,0,2.82.84,9,9,0,0,0,1.63-.15l1.25-.23,1.81,8.6c-.57.18-1.39.39-2.44.63a19.54,19.54,0,0,1-3.82.45q-6.3.27-10.1-2.73c-2.54-2-3.81-5-3.79-9.12v-21.7h-5.69v-8.68h5.69v-10h11.56v10Z"/><path class="cls-5" d="M674.81,170l-10.58.65a6,6,0,0,0-2.19-3.44,7.35,7.35,0,0,0-4.78-1.44,8.61,8.61,0,0,0-4.54,1.12,3.34,3.34,0,0,0-1.83,3,3.07,3.07,0,0,0,1.18,2.52,9.55,9.55,0,0,0,4.11,1.66l7.54,1.52q12,2.46,12,11.28a11.39,11.39,0,0,1-2.4,7.19,15.66,15.66,0,0,1-6.58,4.81,24.87,24.87,0,0,1-9.57,1.72q-8.28,0-13.18-3.45a13.28,13.28,0,0,1-5.73-9.43l11.37-.6a5.89,5.89,0,0,0,2.51,3.86,9,9,0,0,0,5.06,1.3,8.9,8.9,0,0,0,4.89-1.2,3.58,3.58,0,0,0,1.89-3c-.06-2.06-1.84-3.45-5.35-4.15l-7.21-1.44q-12.11-2.42-12-11.91a11,11,0,0,1,4.81-9.49q4.85-3.47,12.84-3.47T669.51,161A12.93,12.93,0,0,1,674.81,170Z"/><path class="cls-5" d="M701,199.82V144.27h37.43V154H712.73v13.23h23.76v9.69H712.73v13.26h25.79v9.68Z"/><path class="cls-5" d="M747.77,199.82V144.27h21.91q9.48,0,14.69,4.94t5.22,13.21a18,18,0,0,1-2.53,9.74,15.54,15.54,0,0,1-7.29,6.07l11.8,21.59h-13l-10.53-19.69h-8.57v19.69Zm11.74-29.13h8q10,0,10-8.27,0-8.55-10.07-8.54h-7.92Z"/><path class="cls-5" d="M797.89,199.82V144.27h21.92a22.36,22.36,0,0,1,10.76,2.4,16.63,16.63,0,0,1,6.8,6.65,19.93,19.93,0,0,1,2.34,9.78,19.45,19.45,0,0,1-2.38,9.75,16.6,16.6,0,0,1-6.91,6.59,23.22,23.22,0,0,1-10.91,2.37h-9.87v18Zm11.75-27.42h8q5,0,7.53-2.59a9.31,9.31,0,0,0,2.48-6.71,9.17,9.17,0,0,0-2.48-6.69q-2.49-2.53-7.59-2.53h-7.91Z"/><path class="cls-5" d="M231.85,126.05V0h86V24.74H262.31V50.59h50.1V75.4h-50.1v50.65Z"/><path class="cls-5" d="M370.39,127.84q-14.83,0-25.54-6.13a41.44,41.44,0,0,1-16.46-17.11q-5.76-11-5.76-25.51t5.76-25.57a41.38,41.38,0,0,1,16.46-17.11q10.71-6.13,25.54-6.13T396,36.41A41.55,41.55,0,0,1,412.4,53.52q5.76,11,5.75,25.57T412.4,104.6A41.61,41.61,0,0,1,396,121.71Q385.29,127.83,370.39,127.84Zm.19-22.72q8.06,0,12.49-7.26t4.43-19q0-11.75-4.43-19t-12.49-7.3a14.21,14.21,0,0,0-12.84,7.3q-4.46,7.29-4.46,19t4.46,19A14.23,14.23,0,0,0,370.58,105.12Z"/><path class="cls-5" d="M468.13,127.4a34.76,34.76,0,0,1-19-5.44q-8.58-5.44-13.69-16.22t-5.11-26.9q0-16.68,5.29-27.42t13.91-15.94A35.21,35.21,0,0,1,468,30.28q11.21,0,17.63,5.45a31.09,31.09,0,0,1,9.08,12h.62V0h30.09V126.05H495.64V110.72h-.92a29.93,29.93,0,0,1-9.35,11.61Q478.85,127.4,468.13,127.4ZM478.59,104a14.6,14.6,0,0,0,12.84-6.83Q496,90.29,496,78.78T491.43,60.5a14.69,14.69,0,0,0-12.84-6.71,14.51,14.51,0,0,0-12.86,6.8q-4.49,6.81-4.49,18.19t4.49,18.31A14.46,14.46,0,0,0,478.59,104Z"/><path class="cls-5" d="M670.7,60.38l-27.63.74a10.67,10.67,0,0,0-4.5-7.36,16.1,16.1,0,0,0-9.84-2.86,17.94,17.94,0,0,0-8.9,2.06c-2.44,1.38-3.64,3.27-3.6,5.7a6,6,0,0,0,2.25,4.76q2.31,2.07,8.28,3.3L645,70.16Q672.85,75.52,673,95.77a26.78,26.78,0,0,1-5.75,16.92,37,37,0,0,1-15.54,11.18,60,60,0,0,1-22.53,4q-20.25,0-32-8.34A30.71,30.71,0,0,1,584,97.12l29.73-.74a11.55,11.55,0,0,0,5.11,7.88A18.76,18.76,0,0,0,629.34,107a18.35,18.35,0,0,0,9.42-2.15q3.63-2.16,3.69-5.73-.18-6-11.51-8.18l-16.49-3.14q-28.26-5.23-28.07-27.39-.06-14.22,11.26-22.16t30.53-7.94q19.2,0,30.28,8T670.7,60.38Z"/><path class="cls-5" d="M741.17,31.51V53.67h-17V96.32c0,2.79.66,4.75,2,5.88a8.45,8.45,0,0,0,5.63,1.69,20.86,20.86,0,0,0,3.66-.34c1.29-.22,2.27-.42,2.92-.58l4.56,21.73q-2.16.61-6,1.5a55.59,55.59,0,0,1-9.36,1.2q-15.94.75-24.77-6.33T694,99.65v-46h-12.5V31.51H694V8.86h30.1V31.51Z"/><path class="cls-5" d="M783.21,127.65q-13.55,0-22.31-6.89t-8.77-20.93q0-10.45,4.8-16.65A28.35,28.35,0,0,1,769.73,74a65.6,65.6,0,0,1,17.54-3.78q12.13-1,17.27-2.59c3.42-1,5.14-3,5.14-5.85v-.3a8.84,8.84,0,0,0-3.26-7.33c-2.18-1.72-5.11-2.58-8.81-2.58q-6,0-9.6,2.58a11.39,11.39,0,0,0-4.61,7.14l-27.76-1A32.4,32.4,0,0,1,768.1,38.84q10.68-8.57,29.76-8.56A58.16,58.16,0,0,1,819.37,34a34.19,34.19,0,0,1,14.9,10.74,26.94,26.94,0,0,1,5.44,17v64.26H811.4V112.88h-.74Q802.79,127.66,783.21,127.65Zm9.3-19.69a18.37,18.37,0,0,0,12.28-4.31,14,14,0,0,0,5.07-11.21v-9a26.73,26.73,0,0,1-7.11,2.28c-3,.61-6,1.13-8.77,1.53q-13.35,2-13.35,11.08a8.35,8.35,0,0,0,3.32,7.14A14,14,0,0,0,792.51,108Z"/><path class="cls-5" d="M542.3,31.52v94.53h30.1V31.52Z"/><path class="cls-2" d="M555.42,0h17a0,0,0,0,1,0,0V9.22a13.12,13.12,0,0,1-13.12,13.12h-17a0,0,0,0,1,0,0V13.12A13.12,13.12,0,0,1,555.42,0Z"/></svg>