<svg id="Layer_1" data-name="Layer 1" xmlns="http://www.w3.org/2000/svg" viewBox="0 0 180.84 200.63"><defs><style>.cls-1,.cls-3,.cls-4{fill:#fff;}.cls-2{fill:#0284c7;}.cls-3{opacity:0.85;}.cls-4{opacity:0.7;}</style></defs><rect class="cls-1" width="180.84" height="200.63"/><path class="cls-2" d="M92.43,0h88.4a0,0,0,0,1,0,0V108.2A92.43,92.43,0,0,1,88.4,200.63H0a0,0,0,0,1,0,0V92.43A92.43,92.43,0,0,1,92.43,0Z"/><path class="cls-1" d="M91.82,29.29A65.42,65.42,0,0,0,26.4,94.7v76.65h4.1a21.71,21.71,0,0,0,21.71-21.71V94.7A39.73,39.73,0,0,1,91.82,55.09h40.87a21.69,21.69,0,0,0,21.7-21.7v-4.1Z"/><path class="cls-1" d="M46.17,93.87v25.8H83.43A21.71,21.71,0,0,0,105.14,98v-4.1Z"/><path class="cls-3" d="M134.17,119.61h13a0,0,0,0,1,0,0v13a12.82,12.82,0,0,1-12.82,12.82h-13a0,0,0,0,1,0,0v-13A12.82,12.82,0,0,1,134.17,119.61Z"/><path class="cls-1" d="M141.41,68.06h13a0,0,0,0,1,0,0V81a12.82,12.82,0,0,1-12.82,12.82h-13a0,0,0,0,1,0,0v-13A12.82,12.82,0,0,1,141.41,68.06Z"/><path class="cls-4" d="M85.89,145.54h13a0,0,0,0,1,0,0v13a12.82,12.82,0,0,1-12.82,12.82h-13a0,0,0,0,1,0,0v-13A12.82,12.82,0,0,1,85.89,145.54Z"/></svg>