<svg width="815" height="724" viewBox="0 0 815 724" fill="none" xmlns="http://www.w3.org/2000/svg">
<g filter="url(#filter0_dd_72_3344)">
<rect x="12" y="251.292" width="600" height="408" rx="40" transform="rotate(-15 12 251.292)" fill="white"/>
<line opacity="0.2" x1="185.43" y1="539.215" x2="637.483" y2="418.088" stroke="#B4B6C4" stroke-width="2" stroke-linecap="round"/>
<line opacity="0.2" x1="171.453" y1="487.055" x2="623.507" y2="365.928" stroke="#B4B6C4" stroke-width="2" stroke-linecap="round"/>
<line opacity="0.2" x1="157.477" y1="434.895" x2="609.53" y2="313.768" stroke="#B4B6C4" stroke-width="2" stroke-linecap="round"/>
<line opacity="0.2" x1="143.501" y1="382.735" x2="595.554" y2="261.608" stroke="#B4B6C4" stroke-width="2" stroke-linecap="round"/>
<line opacity="0.2" x1="129.525" y1="330.575" x2="581.578" y2="209.448" stroke="#B4B6C4" stroke-width="2" stroke-linecap="round"/>
<path d="M89.036 391.2C89.8989 390.969 90.7135 390.944 91.4799 391.125C92.2591 391.303 92.9234 391.67 93.4729 392.227C94.0318 392.767 94.4252 393.463 94.6529 394.313L92.7597 394.82C92.5458 394.021 92.1448 393.453 91.557 393.113C90.9691 392.774 90.2823 392.709 89.4967 392.92C89.0331 393.044 88.6327 393.276 88.2956 393.614C87.9713 393.95 87.7468 394.348 87.6219 394.809C87.4936 395.258 87.4916 395.714 87.6158 396.178L88.1749 398.264C88.7456 397.2 89.6298 396.508 90.8276 396.187C91.6003 395.98 92.357 395.97 93.0976 396.158C93.851 396.343 94.499 396.701 95.0416 397.232C95.5936 397.746 95.9697 398.377 96.1699 399.124C96.4045 400 96.4201 400.831 96.2167 401.617C96.0097 402.39 95.6086 403.057 95.0132 403.616C94.4178 404.176 93.6822 404.574 92.8065 404.808C91.9307 405.043 91.095 405.067 90.2995 404.88C89.5005 404.679 88.8099 404.292 88.2278 403.716C87.6551 403.124 87.2531 402.397 87.0219 401.534L85.7692 396.859C85.5552 396.06 85.5564 395.266 85.7728 394.477C85.9857 393.674 86.3799 392.982 86.9555 392.4C87.544 391.814 88.2375 391.414 89.036 391.2ZM90.9792 397.989C90.2193 398.192 89.6474 398.608 89.2634 399.235C88.8759 399.85 88.7805 400.524 88.9772 401.258C89.1739 401.992 89.5954 402.535 90.2417 402.887C90.8845 403.225 91.5859 403.292 92.3458 403.089C93.1056 402.885 93.6746 402.484 94.0526 401.886C94.4401 401.272 94.532 400.584 94.3284 399.824C94.1248 399.065 93.7033 398.522 93.0639 398.196C92.434 397.854 91.7391 397.785 90.9792 397.989ZM100.979 388C101.791 387.783 102.583 387.778 103.356 387.984C104.142 388.188 104.827 388.577 105.409 389.153C105.991 389.729 106.396 390.442 106.624 391.292L107.881 395.986C108.106 396.823 108.116 397.635 107.913 398.421C107.706 399.194 107.315 399.872 106.739 400.454C106.173 401.02 105.471 401.415 104.634 401.639L104.383 401.706C103.533 401.934 102.715 401.946 101.929 401.743C101.152 401.523 100.485 401.122 99.929 400.539C99.3726 399.957 98.984 399.253 98.7631 398.429L97.5052 393.735C97.274 392.872 97.2602 392.047 97.4636 391.261C97.68 390.472 98.073 389.8 98.6426 389.248C99.2088 388.682 99.904 388.288 100.728 388.067L100.979 388ZM101.324 389.751C100.577 389.951 100.013 390.371 99.6328 391.011C99.2488 391.639 99.1569 392.326 99.357 393.073L100.693 398.057C100.893 398.804 101.318 399.36 101.967 399.724C102.614 400.075 103.31 400.151 104.057 399.951C104.83 399.744 105.4 399.322 105.768 398.685C106.136 398.048 106.221 397.363 106.024 396.628L104.689 391.644C104.492 390.91 104.075 390.359 103.439 389.992C102.802 389.624 102.097 389.544 101.324 389.751ZM110.113 385.056L112.67 394.599L115.6 387.913L117.59 387.38L115.068 393.191L120.486 397.185L118.284 397.775L114.344 394.896L113.271 396.84L113.84 398.965L112.024 399.452L108.297 385.542L110.113 385.056Z" fill="#5D6180"/>
<path d="M102.974 443.371C103.811 443.146 104.599 443.101 105.339 443.234C106.078 443.367 106.703 443.662 107.212 444.119C107.717 444.564 108.062 445.127 108.244 445.81C108.441 446.544 108.417 447.199 108.171 447.776C107.934 448.336 107.523 448.86 106.936 449.349L106.971 449.402C107.767 449.437 108.452 449.674 109.025 450.114C109.608 450.538 110.013 451.175 110.241 452.025C110.434 452.746 110.407 453.443 110.16 454.117C109.912 454.791 109.478 455.383 108.856 455.895C108.234 456.407 107.491 456.778 106.628 457.01L106.396 457.072C104.993 457.448 103.779 457.4 102.755 456.929C101.741 456.442 101.07 455.586 100.743 454.363L100.701 454.208L102.594 453.701L102.651 453.913C102.841 454.622 103.224 455.099 103.801 455.345C104.374 455.578 105.105 455.575 105.994 455.337C106.908 455.092 107.568 454.722 107.974 454.226C108.389 453.715 108.496 453.086 108.296 452.339C107.916 450.922 106.735 450.479 104.752 451.011L103.303 451.399L102.837 449.66L104.324 449.262C105.11 449.051 105.693 448.702 106.073 448.214C106.465 447.722 106.572 447.141 106.393 446.471C106.217 445.815 105.844 445.376 105.274 445.156C104.717 444.933 104.046 444.926 103.26 445.137C102.526 445.333 101.982 445.672 101.628 446.154C101.274 446.635 101.183 447.198 101.356 447.842L101.402 448.016L99.5091 448.523L99.4159 448.175C99.2261 447.467 99.2455 446.792 99.474 446.151C99.712 445.494 100.12 444.929 100.697 444.457C101.288 443.981 101.988 443.635 102.8 443.417L102.974 443.371ZM114.956 440.16C115.767 439.943 116.559 439.937 117.333 440.144C118.119 440.348 118.803 440.737 119.385 441.313C119.967 441.889 120.372 442.601 120.6 443.451L121.858 448.146C122.082 448.983 122.092 449.795 121.889 450.581C121.682 451.354 121.291 452.032 120.715 452.614C120.149 453.18 119.447 453.575 118.61 453.799L118.359 453.866C117.509 454.094 116.691 454.106 115.905 453.903C115.128 453.683 114.462 453.282 113.905 452.699C113.349 452.117 112.96 451.413 112.739 450.589L111.481 445.895C111.25 445.032 111.236 444.207 111.44 443.421C111.656 442.632 112.049 441.96 112.619 441.407C113.185 440.842 113.88 440.448 114.705 440.227L114.956 440.16ZM115.3 441.911C114.553 442.111 113.99 442.531 113.609 443.171C113.225 443.799 113.133 444.486 113.333 445.233L114.669 450.217C114.869 450.964 115.294 451.52 115.944 451.884C116.59 452.235 117.287 452.311 118.034 452.111C118.806 451.904 119.377 451.482 119.744 450.845C120.112 450.208 120.197 449.522 120.001 448.788L118.665 443.804C118.469 443.07 118.052 442.519 117.415 442.151C116.778 441.784 116.073 441.703 115.3 441.911ZM124.09 437.216L126.647 446.759L129.576 440.073L131.566 439.54L129.044 445.351L134.462 449.344L132.26 449.935L128.321 447.056L127.247 449L127.817 451.125L126.001 451.612L122.274 437.702L124.09 437.216Z" fill="#5D6180"/>
<path d="M121.425 506.9L124.902 505.968L125.363 507.687L116.515 510.058L116.054 508.339L119.532 507.407L117.12 498.405L113.604 499.347L113.272 498.11C114.763 497.545 116.206 496.696 117.601 495.563L118.335 495.367L121.425 506.9ZM128.932 492.32C129.743 492.103 130.536 492.097 131.309 492.304C132.095 492.508 132.779 492.897 133.361 493.473C133.943 494.049 134.348 494.761 134.576 495.611L135.834 500.306C136.058 501.143 136.069 501.955 135.865 502.741C135.658 503.514 135.267 504.192 134.691 504.774C134.125 505.34 133.424 505.735 132.586 505.959L132.335 506.026C131.485 506.254 130.667 506.266 129.881 506.063C129.104 505.843 128.438 505.442 127.881 504.859C127.325 504.277 126.936 503.573 126.716 502.749L125.458 498.055C125.227 497.192 125.213 496.367 125.416 495.581C125.632 494.792 126.025 494.12 126.595 493.567C127.161 493.002 127.857 492.608 128.681 492.387L128.932 492.32ZM129.277 494.071C128.53 494.271 127.966 494.691 127.585 495.331C127.201 495.959 127.109 496.646 127.31 497.393L128.645 502.377C128.845 503.124 129.27 503.68 129.92 504.044C130.566 504.395 131.263 504.471 132.01 504.271C132.783 504.064 133.353 503.642 133.72 503.005C134.088 502.368 134.174 501.682 133.977 500.948L132.641 495.964C132.445 495.23 132.028 494.679 131.391 494.312C130.754 493.944 130.049 493.863 129.277 494.071ZM138.066 489.376L140.623 498.919L143.552 492.233L145.542 491.7L143.02 497.511L148.438 501.504L146.236 502.095L142.297 499.216L141.223 501.16L141.793 503.285L139.977 503.772L136.25 489.862L138.066 489.376Z" fill="#5D6180"/>
<path d="M131.023 547.665C131.834 547.447 132.626 547.442 133.4 547.649C134.186 547.853 134.87 548.242 135.452 548.818C136.034 549.393 136.439 550.106 136.667 550.956L137.925 555.651C138.149 556.488 138.159 557.299 137.956 558.085C137.749 558.859 137.358 559.536 136.782 560.119C136.216 560.684 135.514 561.079 134.677 561.304L134.426 561.371C133.576 561.599 132.758 561.611 131.972 561.407C131.195 561.188 130.529 560.787 129.972 560.204C129.416 559.621 129.027 558.918 128.806 558.094L127.549 553.399C127.317 552.537 127.303 551.712 127.507 550.926C127.723 550.136 128.116 549.465 128.686 548.912C129.252 548.346 129.947 547.953 130.772 547.732L131.023 547.665ZM131.367 549.415C130.62 549.615 130.057 550.036 129.676 550.676C129.292 551.303 129.2 551.991 129.4 552.738L130.736 557.722C130.936 558.469 131.361 559.024 132.011 559.389C132.657 559.74 133.354 559.816 134.101 559.615C134.873 559.408 135.444 558.986 135.811 558.35C136.179 557.713 136.264 557.027 136.068 556.293L134.732 551.309C134.536 550.575 134.119 550.024 133.482 549.656C132.845 549.289 132.14 549.208 131.367 549.415Z" fill="#5D6180"/>
<path d="M74.8473 339.097C75.736 338.859 76.5734 338.842 77.3595 339.045C78.1585 339.245 78.8426 339.635 79.4119 340.214C79.994 340.79 80.4007 341.509 80.6319 342.372L81.8846 347.047C82.0986 347.845 82.0991 348.646 81.8862 349.448C81.6698 350.238 81.2674 350.925 80.6789 351.511C80.1033 352.093 79.4163 352.491 78.6178 352.705C77.742 352.94 76.9145 352.968 76.1353 352.791C75.3655 352.597 74.7076 352.228 74.1615 351.684C73.6121 351.127 73.2252 350.43 73.0008 349.593L74.8941 349.086C75.108 349.884 75.5089 350.453 76.0968 350.792C76.6847 351.132 77.3714 351.196 78.1571 350.986C78.6207 350.862 79.0147 350.632 79.3389 350.296C79.676 349.958 79.9088 349.564 80.0371 349.115C80.1619 348.654 80.1622 348.192 80.038 347.728L79.4789 345.642C78.9211 346.702 78.0368 347.395 76.8262 347.719C76.0534 347.926 75.2903 347.937 74.5369 347.753C73.7963 347.565 73.15 347.213 72.598 346.698C72.0554 346.167 71.6841 345.529 71.4839 344.782C71.2492 343.906 71.2354 343.081 71.4423 342.308C71.6458 341.522 72.0387 340.851 72.6213 340.294C73.2167 339.734 73.9587 339.335 74.8473 339.097ZM75.308 340.817C74.5482 341.02 73.9745 341.429 73.587 342.044C73.209 342.642 73.1217 343.321 73.3253 344.081C73.529 344.841 73.9457 345.392 74.5757 345.734C75.2151 346.059 75.9147 346.12 76.6746 345.917C77.4344 345.713 78.0081 345.304 78.3956 344.69C78.7831 344.075 78.8767 343.394 78.6766 342.647C78.4764 341.9 78.0549 341.357 77.4121 341.019C76.7692 340.681 76.0679 340.613 75.308 340.817ZM87.0032 335.84C87.8146 335.623 88.6069 335.618 89.3801 335.824C90.1662 336.028 90.8504 336.417 91.4325 336.993C92.0147 337.569 92.4196 338.281 92.6474 339.131L93.9052 343.826C94.1295 344.663 94.14 345.475 93.9365 346.261C93.7296 347.034 93.3383 347.712 92.7627 348.294C92.1965 348.86 91.4949 349.255 90.6577 349.479L90.4066 349.546C89.5566 349.774 88.7385 349.786 87.9524 349.583C87.1757 349.363 86.5092 348.962 85.9528 348.379C85.3964 347.797 85.0078 347.093 84.7869 346.269L83.529 341.575C83.2978 340.712 83.284 339.887 83.4874 339.101C83.7038 338.312 84.0968 337.64 84.6664 337.087C85.2326 336.522 85.9278 336.128 86.7521 335.907L87.0032 335.84ZM87.348 337.591C86.601 337.791 86.0372 338.211 85.6566 338.851C85.2726 339.479 85.1807 340.166 85.3808 340.913L86.7163 345.897C86.9165 346.644 87.3415 347.2 87.9912 347.564C88.6375 347.915 89.3341 347.991 90.0811 347.791C90.8539 347.584 91.4241 347.162 91.7918 346.525C92.1595 345.888 92.245 345.203 92.0483 344.468L90.7128 339.484C90.5161 338.75 90.0993 338.199 89.4624 337.832C88.8255 337.464 88.1207 337.384 87.348 337.591ZM96.1371 332.896L98.6942 342.439L101.624 335.753L103.613 335.22L101.091 341.031L106.51 345.024L104.307 345.615L100.368 342.736L99.2947 344.68L99.8641 346.805L98.0481 347.292L94.3211 333.382L96.1371 332.896Z" fill="#5D6180"/>
<path d="M209.68 568.207L213.231 581.459L211.337 581.967L208.382 570.936L208.266 570.967L206.643 583.225L205.039 583.654L197.525 573.845L197.428 573.871L200.384 584.902L198.664 585.362L195.113 572.11L198.088 571.313L205.153 580.601L205.23 580.58L206.724 568.999L209.68 568.207ZM217.807 569.446C219.107 569.097 220.142 569.096 220.911 569.442C221.693 569.785 222.216 570.445 222.478 571.424L223.85 576.544C223.912 576.775 224.01 576.935 224.144 577.024C224.274 577.099 224.417 577.116 224.572 577.075C224.868 576.995 225.14 576.826 225.388 576.566L225.745 577.899C225.376 578.274 224.915 578.536 224.361 578.684C223.807 578.832 223.354 578.788 223 578.552C222.644 578.302 222.378 577.904 222.204 577.357C221.723 578.756 220.729 579.657 219.222 580.061C218.14 580.351 217.267 580.336 216.602 580.018C215.946 579.683 215.482 579.007 215.209 577.989C214.995 577.191 215.034 576.511 215.325 575.95C215.613 575.375 216.206 574.858 217.104 574.396C218.002 573.935 219.288 573.48 220.962 573.031L220.719 572.123C220.543 571.466 220.227 571.061 219.772 570.907C219.313 570.74 218.716 570.755 217.982 570.952C217.287 571.138 216.782 571.418 216.468 571.792C216.154 572.166 216.063 572.598 216.194 573.087L216.256 573.319L214.479 573.795C214.405 573.622 214.335 573.413 214.269 573.168C214.149 572.717 214.215 572.244 214.469 571.748C214.722 571.252 215.127 570.806 215.683 570.408C216.236 569.998 216.886 569.692 217.633 569.492L217.807 569.446ZM221.34 574.441C219.988 574.804 218.983 575.149 218.325 575.477C217.677 575.789 217.273 576.111 217.114 576.443C216.955 576.776 216.939 577.181 217.067 577.657C217.305 578.546 218.1 578.809 219.452 578.446C219.929 578.319 220.348 578.082 220.711 577.736C221.071 577.378 221.321 576.945 221.461 576.438C221.601 575.931 221.595 575.394 221.443 574.828L221.34 574.441ZM229.667 566.268C230.582 566.023 231.376 566.127 232.05 566.582C232.72 567.023 233.175 567.688 233.413 568.577L233.551 569.327L231.948 569.756L231.834 569.331C231.731 568.945 231.543 568.629 231.27 568.385C230.997 568.141 230.692 567.981 230.355 567.906C230.014 567.817 229.695 567.813 229.399 567.893C228.781 568.058 228.363 568.432 228.147 569.015C227.93 569.597 227.934 570.307 228.158 571.144L229.737 577.037L227.921 577.523L225.276 567.651L226.57 567.305L227.234 568.7C227.242 568.422 227.347 568.118 227.549 567.788C227.75 567.458 228.028 567.156 228.382 566.881C228.75 566.603 229.178 566.399 229.667 566.268Z" fill="#5D6180"/>
<path d="M306.929 542.149L315.657 554.014L313.61 554.563L311.718 551.985L305.381 553.683L305.051 556.856L303.216 557.348L304.843 542.708L306.929 542.149ZM306.458 544.719L306.342 544.75L305.597 551.782L310.6 550.441L306.458 544.719ZM319.303 542.25C320.553 541.915 321.654 542.11 322.607 542.835C323.561 543.559 324.251 544.72 324.679 546.317L324.736 546.529C325.143 548.049 325.11 549.342 324.637 550.407C324.176 551.469 323.314 552.17 322.052 552.508C320.842 552.832 319.766 552.603 318.824 551.82L320.097 556.572L318.282 557.059L314.699 543.69L316.052 543.328C316.252 543.716 316.457 544.144 316.665 544.613C317.123 543.386 318.003 542.598 319.303 542.25ZM319.363 543.787C318.488 544.021 317.925 544.496 317.675 545.212C317.438 545.924 317.485 546.899 317.816 548.135C318.154 549.397 318.611 550.276 319.185 550.771C319.769 551.249 320.485 551.375 321.336 551.147C322.186 550.919 322.735 550.447 322.985 549.732C323.235 549.016 323.193 548.033 322.858 546.784C322.52 545.522 322.059 544.652 321.475 544.173C320.904 543.691 320.2 543.562 319.363 543.787ZM330.354 539.289C331.268 539.044 332.062 539.148 332.736 539.603C333.407 540.044 333.861 540.709 334.099 541.598L334.238 542.348L332.634 542.777L332.521 542.352C332.417 541.966 332.229 541.651 331.956 541.406C331.684 541.162 331.379 541.002 331.041 540.927C330.7 540.839 330.381 540.834 330.085 540.914C329.467 541.079 329.05 541.453 328.833 542.036C328.616 542.619 328.62 543.328 328.845 544.166L330.423 550.058L328.607 550.544L325.962 540.673L327.257 540.326L327.921 541.721C327.929 541.443 328.034 541.139 328.235 540.809C328.437 540.479 328.714 540.177 329.069 539.902C329.436 539.624 329.864 539.42 330.354 539.289Z" fill="#5D6180"/>
<path d="M416.388 512.82L419.939 526.072L418.045 526.579L415.09 515.549L414.974 515.58L413.351 527.837L411.748 528.267L404.233 518.458L404.136 518.484L407.092 529.514L405.372 529.975L401.821 516.723L404.797 515.925L411.861 525.213L411.938 525.193L413.432 513.612L416.388 512.82ZM424.515 514.058C425.815 513.71 426.85 513.709 427.62 514.055C428.402 514.397 428.924 515.058 429.186 516.037L430.558 521.156C430.62 521.388 430.718 521.548 430.852 521.636C430.983 521.712 431.125 521.729 431.28 521.687C431.576 521.608 431.848 521.439 432.096 521.179L432.453 522.512C432.084 522.887 431.623 523.148 431.069 523.297C430.515 523.445 430.062 523.401 429.709 523.164C429.352 522.915 429.086 522.517 428.912 521.97C428.431 523.369 427.437 524.27 425.93 524.674C424.849 524.964 423.975 524.949 423.31 524.63C422.654 524.295 422.19 523.619 421.917 522.602C421.703 521.803 421.742 521.123 422.033 520.562C422.321 519.988 422.914 519.47 423.812 519.009C424.71 518.548 425.996 518.092 427.67 517.644L427.427 516.736C427.251 516.079 426.935 515.674 426.48 515.52C426.021 515.353 425.425 515.368 424.69 515.564C423.995 515.751 423.49 516.031 423.176 516.405C422.862 516.779 422.771 517.21 422.902 517.7L422.964 517.932L421.187 518.408C421.113 518.234 421.043 518.025 420.978 517.781C420.857 517.33 420.923 516.857 421.177 516.361C421.431 515.865 421.835 515.418 422.391 515.021C422.944 514.61 423.594 514.305 424.341 514.105L424.515 514.058ZM428.048 519.054C426.696 519.416 425.691 519.762 425.033 520.09C424.385 520.401 423.982 520.723 423.822 521.056C423.663 521.389 423.647 521.793 423.775 522.27C424.013 523.158 424.808 523.422 426.16 523.059C426.637 522.931 427.057 522.695 427.419 522.349C427.779 521.99 428.029 521.558 428.169 521.051C428.309 520.544 428.303 520.007 428.152 519.44L428.048 519.054ZM438.892 520.58C438.744 521.779 438.559 522.712 438.337 523.378C438.119 524.058 437.844 524.553 437.513 524.862C437.185 525.185 436.764 525.415 436.249 525.553C435.772 525.681 435.297 525.711 434.824 525.645L434.425 524.157C434.899 524.224 435.245 524.228 435.464 524.169C435.992 524.028 436.381 523.73 436.633 523.276C436.9 522.832 437.048 522.199 437.076 521.377L430.612 512.632L432.544 512.114L437.336 518.636L437.413 518.615L438.263 510.582L440.04 510.105L438.892 520.58Z" fill="#5D6180"/>
<path d="M517.36 496.096C517.674 497.268 517.562 498.292 517.023 499.168C516.485 500.044 515.63 500.639 514.458 500.953L514.284 500.999C513.112 501.313 512.09 501.235 511.219 500.765C510.36 500.291 509.767 499.442 509.439 498.219L509.331 497.813L511.224 497.306L511.364 497.827C511.519 498.407 511.84 498.832 512.326 499.101C512.822 499.355 513.373 499.401 513.978 499.239C514.583 499.076 515.024 498.765 515.301 498.304C515.591 497.84 515.656 497.312 515.498 496.719L512.884 486.964L514.777 486.456L517.36 496.096ZM529.35 494.685C529.413 494.917 529.511 495.077 529.645 495.165C529.775 495.24 529.918 495.257 530.073 495.216C530.356 495.14 530.621 494.972 530.869 494.713L531.227 496.046C530.896 496.41 530.525 496.648 530.113 496.758C529.418 496.944 528.89 496.934 528.531 496.726C528.185 496.516 527.929 496.156 527.766 495.648C527.556 496.256 527.212 496.776 526.734 497.208C526.269 497.636 525.683 497.945 524.974 498.135C523.983 498.401 523.087 498.33 522.288 497.923C521.498 497.5 520.955 496.734 520.658 495.627L518.877 488.981L520.693 488.494L522.386 494.812C522.797 496.344 523.697 496.924 525.088 496.551C525.539 496.431 525.931 496.194 526.265 495.843C526.612 495.488 526.852 495.071 526.986 494.594C527.117 494.103 527.115 493.607 526.981 493.104L525.407 487.231L527.223 486.745L529.35 494.685ZM535.732 484.258C536.814 483.968 537.742 484.03 538.515 484.444C539.289 484.858 539.826 485.625 540.126 486.745L541.907 493.391L540.091 493.877L538.398 487.56C537.987 486.028 537.087 485.448 535.696 485.82C535.232 485.945 534.833 486.183 534.5 486.534C534.166 486.886 533.934 487.307 533.803 487.798C533.669 488.275 533.669 488.765 533.803 489.268L535.377 495.141L533.561 495.627L530.916 485.755L532.23 485.403L532.869 486.785C533.4 485.469 534.354 484.627 535.732 484.258Z" fill="#5D6180"/>
<path d="M617.816 469.179C618.13 470.351 618.018 471.375 617.48 472.251C616.941 473.127 616.086 473.722 614.914 474.036L614.74 474.082C613.568 474.396 612.547 474.318 611.675 473.848C610.817 473.374 610.223 472.525 609.896 471.301L609.787 470.896L611.68 470.388L611.82 470.91C611.975 471.49 612.296 471.914 612.782 472.184C613.278 472.438 613.829 472.484 614.434 472.322C615.04 472.159 615.481 471.848 615.757 471.387C616.047 470.923 616.113 470.395 615.954 469.802L613.34 460.046L615.233 459.539L617.816 469.179ZM629.807 467.768C629.869 467.999 629.967 468.16 630.101 468.248C630.232 468.323 630.374 468.34 630.529 468.299C630.812 468.223 631.078 468.055 631.326 467.795L631.683 469.128C631.353 469.493 630.981 469.73 630.569 469.841C629.874 470.027 629.346 470.017 628.987 469.809C628.641 469.598 628.386 469.239 628.222 468.731C628.012 469.339 627.668 469.859 627.191 470.291C626.726 470.719 626.139 471.028 625.431 471.218C624.439 471.484 623.543 471.413 622.744 471.006C621.954 470.583 621.411 469.817 621.114 468.71L619.334 462.064L621.15 461.577L622.842 467.895C623.253 469.427 624.154 470.007 625.545 469.634C625.995 469.514 626.388 469.277 626.721 468.926C627.068 468.571 627.308 468.154 627.443 467.676C627.573 467.186 627.572 466.689 627.437 466.187L625.863 460.314L627.679 459.828L629.807 467.768ZM632.184 454.293L635.911 468.203L634.095 468.689L630.368 454.78L632.184 454.293Z" fill="#5D6180"/>
<path d="M62.4466 280.005C63.9792 279.595 65.4545 279.547 66.8726 279.863C68.3086 280.174 69.563 280.852 70.6356 281.898C71.7082 282.944 72.4716 284.315 72.9257 286.01L73.491 288.119C73.9451 289.814 73.9693 291.383 73.5634 292.825C73.1575 294.267 72.4104 295.482 71.3222 296.469C70.252 297.452 68.9506 298.148 67.418 298.559L60.3861 300.443L55.4147 281.89L62.4466 280.005ZM63.6868 295.993L66.5266 295.232C67.6806 294.923 68.5192 294.302 69.0423 293.37C69.5606 292.419 69.6362 291.259 69.269 289.888L68.3849 286.589C68.0177 285.218 67.3744 284.26 66.4551 283.714C65.531 283.15 64.4919 283.023 63.338 283.332L60.4982 284.093L63.6868 295.993ZM84.7302 283.919C84.566 283.306 84.2348 282.864 83.7366 282.591C83.2565 282.314 82.5838 282.291 81.7183 282.523C81.2134 282.659 80.8048 282.865 80.4925 283.142C80.1754 283.401 79.9515 283.683 79.8208 283.988C79.7081 284.289 79.6808 284.548 79.7388 284.764L79.7967 284.98L75.9833 286.002C75.8892 285.795 75.8277 285.638 75.7987 285.53C75.591 284.755 75.6574 283.993 75.998 283.244C76.3566 282.491 76.9498 281.82 77.7776 281.231C78.6054 280.642 79.6142 280.188 80.8043 279.869L81.3722 279.717C83.3195 279.195 84.9019 279.187 86.1194 279.692C87.332 280.178 88.1171 281.089 88.4746 282.423L90.1849 288.806C90.2718 289.131 90.4092 289.355 90.5969 289.478C90.8027 289.597 91.0137 289.628 91.2301 289.57C91.4104 289.521 91.5991 289.432 91.7961 289.302C91.9932 289.172 92.1475 289.063 92.2593 288.975L92.9115 291.409C92.3458 291.966 91.6032 292.368 90.6836 292.615C89.6919 292.88 88.8815 292.885 88.2523 292.628C87.6183 292.354 87.1572 291.859 86.869 291.144C86.0223 293.033 84.6794 294.224 82.8403 294.716C81.47 295.084 80.2682 295.106 79.2349 294.784C78.2016 294.462 77.4749 293.516 77.0545 291.947C76.7115 290.667 76.8112 289.597 77.3537 288.737C77.9094 287.853 78.8049 287.121 80.0403 286.538C81.2757 285.956 82.9211 285.39 84.9766 284.839L84.7302 283.919ZM85.5709 287.057C83.858 287.516 82.6237 288.03 81.868 288.6C81.1256 289.146 80.8558 289.798 81.0587 290.556C81.2182 291.151 81.494 291.531 81.8862 291.696C82.2916 291.839 82.8368 291.819 83.522 291.635C83.9908 291.509 84.4258 291.257 84.8269 290.879C85.2281 290.501 85.5191 290.037 85.7 289.486C85.899 288.93 85.9211 288.364 85.7665 287.787L85.5709 287.057ZM102.356 288.936C102.034 289.177 101.587 289.423 101.016 289.672C100.468 289.935 99.9691 290.127 99.5184 290.248C98.13 290.62 97.0045 290.602 96.1419 290.196C95.2792 289.789 94.6619 288.892 94.2899 287.503L92.2753 279.984L90.7607 280.39L90.036 277.686L91.6858 277.244L91.8839 272.466L94.318 271.813L95.4993 276.222L98.7178 275.359L99.4424 278.064L96.224 278.926L98.0575 285.769C98.2507 286.49 98.5164 286.941 98.8545 287.121C99.2106 287.296 99.6231 287.321 100.092 287.195C100.308 287.137 100.578 287.026 100.901 286.862C101.225 286.698 101.482 286.542 101.675 286.394L102.356 288.936ZM110.931 276.899C110.767 276.286 110.436 275.843 109.937 275.571C109.457 275.294 108.784 275.271 107.919 275.503C107.414 275.638 107.006 275.844 106.693 276.121C106.376 276.38 106.152 276.662 106.022 276.968C105.909 277.269 105.882 277.527 105.94 277.744L105.997 277.96L102.184 278.982C102.09 278.775 102.028 278.618 101.999 278.509C101.792 277.734 101.858 276.972 102.199 276.224C102.557 275.471 103.151 274.8 103.978 274.211C104.806 273.622 105.815 273.168 107.005 272.849L107.573 272.697C109.52 272.175 111.103 272.166 112.32 272.671C113.533 273.158 114.318 274.068 114.675 275.403L116.386 281.786C116.473 282.11 116.61 282.334 116.798 282.458C117.003 282.577 117.214 282.607 117.431 282.549C117.611 282.501 117.8 282.412 117.997 282.281C118.194 282.151 118.348 282.042 118.46 281.954L119.112 284.389C118.547 284.946 117.804 285.348 116.884 285.594C115.893 285.86 115.082 285.865 114.453 285.608C113.819 285.333 113.358 284.839 113.07 284.123C112.223 286.012 110.88 287.203 109.041 287.696C107.671 288.063 106.469 288.086 105.436 287.763C104.402 287.441 103.676 286.496 103.255 284.927C102.912 283.647 103.012 282.577 103.554 281.716C104.11 280.833 105.006 280.1 106.241 279.518C107.476 278.936 109.122 278.369 111.177 277.818L110.931 276.899ZM111.772 280.036C110.059 280.495 108.824 281.009 108.069 281.579C107.326 282.126 107.057 282.778 107.259 283.535C107.419 284.13 107.695 284.51 108.087 284.676C108.492 284.819 109.038 284.798 109.723 284.614C110.192 284.489 110.627 284.237 111.028 283.859C111.429 283.481 111.72 283.016 111.901 282.466C112.1 281.91 112.122 281.343 111.967 280.766L111.772 280.036ZM137.075 275.981L129.691 277.959L129.372 281.958L125.342 283.038L127.105 262.68L132.081 261.347L143.787 278.096L139.406 279.27L137.075 275.981ZM129.979 274.491L135.118 273.114C133.887 271.26 132.408 269.057 130.681 266.505L130.545 266.541L129.979 274.491ZM145.835 264.908C146.56 263.071 147.824 261.911 149.627 261.428C151.034 261.051 152.289 261.121 153.394 261.637C154.516 262.148 155.271 263.124 155.657 264.567L158.244 274.222L154.296 275.28L151.94 266.49C151.752 265.787 151.39 265.266 150.855 264.926C150.332 264.563 149.756 264.467 149.125 264.636C148.421 264.824 147.89 265.257 147.53 265.933C147.165 266.591 147.084 267.299 147.287 268.056L149.563 276.548L145.614 277.606L141.911 263.786L144.859 262.996L145.835 264.908ZM167.717 261.683C167.553 261.07 167.221 260.627 166.723 260.355C166.243 260.078 165.57 260.055 164.705 260.287C164.2 260.422 163.791 260.628 163.479 260.905C163.162 261.164 162.938 261.447 162.807 261.752C162.695 262.053 162.667 262.311 162.725 262.528L162.783 262.744L158.97 263.766C158.876 263.559 158.814 263.402 158.785 263.294C158.578 262.518 158.644 261.757 158.985 261.008C159.343 260.255 159.936 259.584 160.764 258.995C161.592 258.406 162.601 257.952 163.791 257.633L164.359 257.481C166.306 256.959 167.889 256.951 169.106 257.456C170.319 257.942 171.104 258.853 171.461 260.187L173.171 266.57C173.258 266.894 173.396 267.119 173.584 267.242C173.789 267.361 174 267.391 174.217 267.333C174.397 267.285 174.586 267.196 174.783 267.066C174.98 266.936 175.134 266.827 175.246 266.739L175.898 269.173C175.332 269.73 174.59 270.132 173.67 270.379C172.679 270.644 171.868 270.649 171.239 270.392C170.605 270.118 170.144 269.623 169.856 268.908C169.009 270.797 167.666 271.987 165.827 272.48C164.457 272.847 163.255 272.87 162.222 272.548C161.188 272.225 160.461 271.28 160.041 269.711C159.698 268.431 159.798 267.361 160.34 266.5C160.896 265.617 161.792 264.884 163.027 264.302C164.262 263.72 165.908 263.153 167.963 262.603L167.717 261.683ZM168.557 264.82C166.845 265.279 165.61 265.794 164.855 266.363C164.112 266.91 163.842 267.562 164.045 268.319C164.205 268.915 164.481 269.295 164.873 269.46C165.278 269.603 165.823 269.582 166.509 269.399C166.977 269.273 167.412 269.021 167.814 268.643C168.215 268.265 168.506 267.801 168.687 267.25C168.886 266.694 168.908 266.128 168.753 265.551L168.557 264.82ZM177.916 268.951L172.698 249.478L176.647 248.42L181.865 267.893L177.916 268.951ZM192.894 264.126C192.71 266.108 192.269 267.743 191.57 269.032C190.877 270.338 189.845 271.175 188.475 271.543C187.519 271.799 186.707 271.871 186.04 271.76L185.294 268.974C185.534 269.007 185.835 269.013 186.197 268.993C186.564 268.991 186.901 268.95 187.207 268.867C188.361 268.558 188.957 267.5 188.994 265.693L180.144 253.541L184.336 252.418L189.718 260.281L189.881 260.237L190.421 250.788L194.316 249.744L192.894 264.126ZM207.396 260.791C207.074 261.032 206.628 261.277 206.057 261.527C205.509 261.789 205.01 261.981 204.559 262.102C203.171 262.474 202.045 262.457 201.183 262.05C200.32 261.643 199.703 260.746 199.331 259.358L197.316 251.839L195.801 252.245L195.077 249.54L196.726 249.098L196.925 244.32L199.359 243.668L200.54 248.076L203.758 247.214L204.483 249.918L201.265 250.781L203.098 257.623C203.291 258.345 203.557 258.795 203.895 258.975C204.251 259.15 204.664 259.175 205.133 259.049C205.349 258.992 205.619 258.881 205.942 258.717C206.265 258.553 206.523 258.397 206.715 258.249L207.396 260.791ZM204.762 240.887L208.764 239.814L209.598 242.924L205.595 243.997L204.762 240.887ZM210.006 260.352L206.303 246.532L210.252 245.474L213.955 259.294L210.006 260.352ZM219.415 251.831C219.656 252.733 220.093 253.427 220.726 253.915C221.355 254.384 222.065 254.512 222.859 254.3C223.688 254.078 224.27 253.651 224.603 253.021C224.95 252.367 224.988 251.536 224.717 250.526L228.45 249.526C228.793 250.806 228.801 251.954 228.474 252.969C228.165 253.98 227.615 254.813 226.825 255.469C226.034 256.125 225.098 256.599 224.016 256.888L223.584 257.004C221.564 257.545 219.8 257.38 218.291 256.509C216.777 255.62 215.735 254.112 215.165 251.984L214.955 251.2C214.578 249.793 214.534 248.51 214.822 247.351C215.124 246.169 215.698 245.174 216.545 244.367C217.392 243.561 218.455 242.986 219.735 242.643L220.168 242.527C221.232 242.242 222.277 242.213 223.305 242.44C224.345 242.645 225.254 243.116 226.032 243.855C226.822 244.57 227.377 245.523 227.696 246.713L223.774 247.764C223.523 246.826 223.115 246.134 222.551 245.686C221.986 245.238 221.298 245.123 220.487 245.34C219.676 245.558 219.123 246.054 218.828 246.828C218.528 247.585 218.509 248.45 218.77 249.424L219.415 251.831ZM234.237 249.338C234.406 249.969 234.809 250.354 235.445 250.492C236.076 250.613 236.807 250.562 237.636 250.34C238.357 250.147 238.969 249.867 239.47 249.501C239.989 249.13 240.185 248.71 240.06 248.241C239.924 247.737 239.566 247.446 238.985 247.37C238.405 247.293 237.542 247.322 236.399 247.454C235.192 247.565 234.187 247.602 233.385 247.566C232.583 247.53 231.834 247.295 231.139 246.863C230.461 246.426 229.985 245.694 229.71 244.666C229.458 243.729 229.516 242.863 229.883 242.069C230.264 241.252 230.861 240.56 231.675 239.994C232.503 239.405 233.458 238.966 234.54 238.676L235.081 238.531C236.036 238.275 236.981 238.196 237.916 238.293C238.863 238.368 239.676 238.624 240.353 239.061C241.026 239.479 241.459 240.049 241.652 240.771C241.691 240.915 241.718 241.053 241.734 241.184C241.745 241.297 241.753 241.362 241.758 241.38L238.296 242.308C238.006 241.226 237.032 240.907 235.373 241.352C234.615 241.555 234.031 241.827 233.621 242.169C233.228 242.506 233.082 242.864 233.184 243.243C233.304 243.694 233.632 243.944 234.167 243.994C234.721 244.039 235.551 244 236.658 243.877C237.919 243.752 238.951 243.707 239.753 243.743C240.568 243.757 241.335 243.986 242.053 244.432C242.767 244.859 243.266 245.604 243.551 246.668C243.991 248.309 243.733 249.653 242.777 250.702C241.816 251.732 240.443 252.487 238.658 252.965L237.766 253.204C236.648 253.504 235.601 253.601 234.626 253.495C233.651 253.389 232.826 253.088 232.152 252.592C231.496 252.092 231.06 251.436 230.842 250.624L230.724 250.076L234.186 249.148L234.237 249.338Z" fill="#060C3C"/>
<path opacity="0.4" d="M234.673 481.96C214.166 487.455 198.415 503.566 193.624 550.478L647.609 428.833L595.328 233.716C575.659 238.987 566.649 280.046 545.765 285.641C526.526 290.797 527.032 314.633 519.144 316.746C512.011 318.657 507.159 314.813 501.809 316.246C496.459 317.68 503.148 342.642 492.448 345.509C485.315 347.42 476.201 341.935 464.609 345.041C453.018 348.147 451.271 370.415 441.527 373.025C415.67 379.954 416.114 335.245 399.173 339.784C384.907 343.607 388.921 369.285 372.871 373.586C352.364 379.081 348.548 343.44 335.174 347.024C318.233 351.563 343.651 407.179 316.007 414.586C293.716 420.559 297.255 439.298 285.296 442.632C273.338 445.967 258.259 438.023 247.56 440.89C231.51 445.19 252.506 477.182 234.673 481.96Z" fill="url(#paint0_linear_72_3344)"/>
<path d="M193.624 550.478C198.415 503.566 214.166 487.455 234.673 481.96C252.506 477.182 231.51 445.19 247.56 440.89C258.259 438.023 273.338 445.967 285.296 442.632C297.255 439.298 293.716 420.559 316.007 414.586C343.651 407.179 318.233 351.563 335.174 347.024C348.548 343.44 352.364 379.081 372.871 373.586C388.921 369.285 384.907 343.607 399.173 339.784C416.114 335.245 415.67 379.954 441.527 373.025C451.271 370.415 453.018 348.147 464.609 345.041C476.201 341.935 485.315 347.42 492.448 345.509C503.148 342.642 496.459 317.68 501.809 316.246C507.159 314.813 512.011 318.657 519.144 316.746C527.032 314.633 526.526 290.797 545.765 285.641C566.649 280.046 575.659 238.987 595.328 233.716" stroke="#3666A1" stroke-width="4" stroke-linecap="round" stroke-linejoin="round"/>
<path d="M193.624 550.478C198.415 503.566 220.404 505.461 240.912 499.966C258.744 495.188 250.473 466.533 266.522 462.233C277.222 459.366 290.938 460.8 302.897 457.465C314.855 454.131 310.318 426.598 332.608 420.625C360.252 413.218 339.381 383.956 356.322 379.416C369.697 375.833 367.532 384.379 388.039 378.884C404.088 374.584 407.17 341.605 421.436 337.782C438.377 333.243 432.858 393.763 458.715 386.834C468.459 384.224 486.771 408.196 498.363 405.09C509.954 401.984 496.738 362.705 503.871 360.793C514.571 357.926 503.952 335.876 514.762 332.979C525.571 330.083 526.545 329.822 533.678 327.911C541.565 325.797 535.866 319.358 555.106 314.202C575.989 308.607 597.164 322.85 616.833 317.579" stroke="#FFD43D" stroke-width="4" stroke-linecap="round" stroke-linejoin="round"/>
<path d="M393.102 324.068C392.546 324.857 391.505 325.136 390.629 324.731L373.812 316.958C370.416 315.389 370.841 310.432 374.455 309.464L399.476 302.759C403.089 301.791 405.936 305.871 403.78 308.928L393.102 324.068Z" fill="#3666A1"/>
<rect x="305.374" y="272.069" width="140" height="66" rx="8" transform="rotate(-15 305.374 272.069)" fill="#3666A1"/>
<path d="M333.06 279.451C333.041 281.112 332.773 283.139 332.254 285.53C331.731 287.907 331.168 289.731 330.565 291.002L335.897 289.573L334.66 284.96C334.908 283.784 335.042 282.613 335.061 281.449L336.081 281.175L338.168 288.965L340.185 288.424L340.738 290.487L338.721 291.028L339.771 294.946L337.499 295.554L336.449 291.637L328.962 293.643L328.403 291.557C329.66 287.841 330.401 284.023 330.626 280.103L333.06 279.451ZM345.908 276.008C347.423 275.602 348.744 275.679 349.871 276.238C351.014 276.793 351.765 277.743 352.125 279.088C352.349 279.922 352.353 280.65 352.139 281.271C351.94 281.887 351.529 282.519 350.907 283.166L350.932 283.259C351.921 283.425 352.718 283.741 353.323 284.208C353.944 284.671 354.385 285.39 354.646 286.363C355.027 287.785 354.839 289.028 354.08 290.093C353.333 291.138 352.071 291.898 350.294 292.375C348.594 292.83 347.136 292.798 345.92 292.279C344.7 291.745 343.9 290.767 343.519 289.345C343.258 288.371 343.279 287.521 343.581 286.794C343.879 286.051 344.413 285.387 345.183 284.799L345.158 284.706C344.167 284.409 343.457 284.044 343.026 283.613C342.596 283.182 342.288 282.618 342.102 281.923C341.704 280.439 341.865 279.187 342.586 278.165C343.302 277.129 344.409 276.41 345.908 276.008ZM346.461 278.071C345.627 278.295 345.016 278.707 344.631 279.307C344.26 279.903 344.17 280.557 344.361 281.268C344.551 281.979 344.956 282.5 345.575 282.831C346.209 283.158 346.944 283.209 347.778 282.986C348.613 282.762 349.215 282.352 349.585 281.756C349.971 281.156 350.069 280.5 349.878 279.789C349.688 279.078 349.275 278.559 348.641 278.232C348.022 277.901 347.296 277.848 346.461 278.071ZM348.331 285.049C346.816 285.455 345.937 286.221 345.692 287.346C345.621 287.763 345.639 288.172 345.747 288.574C345.979 289.439 346.464 290.013 347.202 290.296C347.937 290.563 348.783 290.568 349.741 290.311C350.715 290.05 351.443 289.615 351.925 289.005C352.419 288.376 352.555 287.644 352.331 286.81C352.111 285.991 351.638 285.43 350.911 285.128C350.196 284.806 349.335 284.78 348.331 285.049ZM357.008 272.437L360.077 283.889L363.592 275.866L365.98 275.226L362.953 282.199L369.455 286.992L366.812 287.7L362.085 284.246L360.797 286.579L361.48 289.129L359.301 289.713L354.829 273.021L357.008 272.437Z" fill="white"/>
<path opacity="0.8" d="M336.824 309.881C337.927 309.586 338.899 309.69 339.74 310.193C340.582 310.696 341.162 311.541 341.479 312.725L341.632 313.297C341.95 314.482 341.875 315.502 341.408 316.355C340.941 317.209 340.146 317.787 339.023 318.088C337.9 318.389 336.923 318.286 336.092 317.78C335.26 317.274 334.686 316.428 334.368 315.244L334.215 314.672C333.898 313.487 333.978 312.466 334.455 311.609C334.932 310.753 335.722 310.177 336.824 309.881ZM337.135 311.04C336.445 311.225 335.972 311.606 335.718 312.182C335.464 312.758 335.46 313.505 335.705 314.422L335.784 314.715C336.024 315.612 336.395 316.252 336.895 316.637C337.406 317.019 338.012 317.116 338.713 316.929C339.393 316.746 339.86 316.367 340.114 315.791C340.376 315.202 340.385 314.454 340.142 313.547L340.064 313.254C339.823 312.357 339.448 311.718 338.937 311.336C338.436 310.951 337.835 310.853 337.135 311.04ZM346.101 307.396C346.832 307.2 347.467 307.283 348.007 307.647C348.543 308 348.906 308.532 349.097 309.243L349.208 309.843L347.925 310.187L347.834 309.847C347.751 309.537 347.601 309.285 347.383 309.09C347.165 308.894 346.921 308.766 346.65 308.706C346.378 308.636 346.123 308.632 345.886 308.696C345.391 308.828 345.057 309.127 344.884 309.593C344.711 310.06 344.714 310.627 344.893 311.297L346.156 316.011L344.703 316.4L342.587 308.503L343.623 308.225L344.154 309.342C344.161 309.119 344.244 308.876 344.406 308.612C344.567 308.348 344.789 308.106 345.073 307.886C345.366 307.664 345.709 307.501 346.101 307.396ZM358.725 312.643L357.643 312.933C357.482 312.623 357.319 312.28 357.152 311.905C356.786 312.887 356.082 313.517 355.041 313.796C354.052 314.061 353.171 313.905 352.398 313.328C351.636 312.748 351.083 311.82 350.741 310.542L350.695 310.372C350.372 309.166 350.395 308.139 350.764 307.289C351.14 306.426 351.833 305.86 352.842 305.589C353.821 305.327 354.682 305.51 355.425 306.14L354.29 301.905L355.743 301.516L358.725 312.643ZM353.416 306.678C352.725 306.863 352.28 307.242 352.08 307.814C351.888 308.374 351.927 309.158 352.198 310.168C352.468 311.178 352.832 311.875 353.288 312.261C353.745 312.647 354.314 312.748 354.994 312.566C356.343 312.205 356.756 311.045 356.231 309.087C355.961 308.078 355.592 307.381 355.125 306.998C354.655 306.605 354.085 306.498 353.416 306.678ZM362.301 303.055C362.95 302.881 363.559 302.867 364.128 303.012C364.705 303.145 365.2 303.426 365.613 303.857C366.027 304.287 366.323 304.837 366.503 305.507L366.797 306.604L361.279 308.083C361.524 308.912 361.892 309.503 362.384 309.857C362.877 310.211 363.489 310.29 364.22 310.094C364.869 309.92 365.297 309.601 365.504 309.137C365.711 308.673 365.744 308.178 365.603 307.653L366.979 307.284C367.145 307.902 367.145 308.482 366.981 309.023C366.827 309.561 366.532 310.027 366.096 310.419C365.671 310.81 365.139 311.09 364.5 311.261L364.438 311.278C363.325 311.576 362.349 311.457 361.51 310.92C360.677 310.37 360.101 309.497 359.781 308.302L359.698 307.993C359.488 307.21 359.448 306.481 359.576 305.806C359.704 305.131 359.992 304.557 360.44 304.084C360.887 303.61 361.472 303.277 362.193 303.084L362.301 303.055ZM362.534 304.235C361.947 304.392 361.516 304.701 361.242 305.161C360.978 305.618 360.9 306.213 361.008 306.946L365.057 305.861L365.007 305.676C364.85 305.088 364.543 304.663 364.086 304.399C363.639 304.132 363.122 304.077 362.534 304.235ZM371.275 300.65C372.007 300.454 372.642 300.538 373.181 300.901C373.717 301.255 374.081 301.787 374.271 302.498L374.382 303.097L373.099 303.441L373.008 303.101C372.926 302.792 372.775 302.54 372.557 302.344C372.339 302.149 372.095 302.021 371.825 301.961C371.552 301.89 371.297 301.887 371.06 301.95C370.566 302.083 370.232 302.382 370.058 302.848C369.885 303.314 369.888 303.882 370.068 304.552L371.331 309.265L369.878 309.655L367.762 301.757L368.797 301.48L369.328 302.596C369.335 302.374 369.419 302.13 369.58 301.866C369.741 301.602 369.963 301.361 370.247 301.141C370.541 300.919 370.883 300.755 371.275 300.65ZM378.311 298.765C378.898 298.608 379.443 298.561 379.946 298.625C380.459 298.686 380.884 298.849 381.219 299.112C381.565 299.373 381.792 299.704 381.9 300.106L381.959 300.388L380.522 300.773L380.484 300.634C380.283 299.882 379.6 299.662 378.436 299.974C377.282 300.283 376.797 300.783 376.982 301.473C377.068 301.793 377.296 301.985 377.667 302.052C378.036 302.107 378.578 302.111 379.294 302.063C379.979 302.023 380.546 302.02 380.997 302.054C381.458 302.085 381.875 302.216 382.246 302.448C382.627 302.677 382.889 303.054 383.029 303.58C383.256 304.425 383.137 305.136 382.673 305.713C382.21 306.29 381.437 306.723 380.355 307.013L380.123 307.075C379.474 307.249 378.881 307.303 378.344 307.237C377.805 307.161 377.356 306.988 376.997 306.72C376.645 306.439 376.417 306.08 376.311 305.645L376.22 305.305L377.657 304.92L377.699 305.074C377.933 305.95 378.787 306.191 380.261 305.796C380.693 305.68 381.054 305.478 381.341 305.192C381.639 304.902 381.742 304.587 381.651 304.247C381.574 303.959 381.415 303.758 381.175 303.646C380.946 303.531 380.681 303.469 380.381 303.461C380.08 303.453 379.672 303.475 379.155 303.525C378.483 303.572 377.935 303.587 377.51 303.568C377.083 303.539 376.689 303.407 376.328 303.172C375.967 302.938 375.714 302.553 375.571 302.017C375.375 301.285 375.51 300.636 375.977 300.07C376.44 299.493 377.172 299.07 378.171 298.802L378.311 298.765Z" fill="white"/>
<ellipse cx="419.908" cy="274.508" rx="14" ry="14" transform="rotate(-15 419.908 274.508)" fill="white"/>
<path d="M419.99 270.848C419.334 270.44 418.371 270.698 418.007 271.38L414.394 278.14C413.913 279.041 414.794 279.955 415.866 279.668L425.988 276.956C427.061 276.668 427.367 275.436 426.5 274.897L419.99 270.848Z" fill="#38E7B2"/>
<path d="M403.044 339.073C404.045 342.807 401.829 346.646 398.094 347.646C394.36 348.647 390.522 346.431 389.521 342.696C388.52 338.962 390.737 335.124 394.471 334.123C398.205 333.123 402.043 335.339 403.044 339.073Z" fill="#3666A1" stroke="#3666A1" stroke-width="2"/>
</g>
<g filter="url(#filter1_d_72_3344)">
<g clip-path="url(#clip0_72_3344)">
<g filter="url(#filter2_d_72_3344)">
<rect x="468" y="83.74" width="254" height="200" rx="12" transform="rotate(-15 468 83.74)" fill="white"/>
</g>
<path d="M556.713 186.397C559.089 186.92 560.99 187.757 562.416 188.907C563.871 190.008 564.909 191.717 565.53 194.036C566.503 197.668 565.945 200.84 563.856 203.553C561.757 206.228 558.408 208.181 553.81 209.413C549.367 210.603 545.524 210.556 542.281 209.272C539.038 207.988 536.935 205.549 535.973 201.955C535.351 199.637 535.371 197.624 536.031 195.915C536.73 194.195 537.983 192.534 539.79 190.932L539.727 190.7C537.766 190.025 536.194 189.183 535.013 188.174C533.87 187.155 533.014 185.583 532.445 183.458C531.813 181.101 531.849 178.918 532.553 176.907C533.246 174.858 534.478 173.12 536.249 171.693C538.059 170.255 540.258 169.19 542.847 168.496C545.436 167.803 547.854 167.631 550.101 167.981C552.387 168.321 554.342 169.205 555.967 170.633C557.582 172.023 558.705 173.896 559.336 176.253C559.906 178.378 559.931 180.172 559.412 181.636C558.932 183.09 558.012 184.6 556.65 186.166L556.713 186.397ZM540.587 182.084C540.97 183.514 541.817 184.591 543.13 185.316C544.432 186.002 545.875 186.133 547.459 185.709C549.043 185.285 550.227 184.45 551.012 183.204C551.786 181.92 551.981 180.563 551.598 179.134L551.427 178.496C551.044 177.067 550.202 176.009 548.9 175.322C547.587 174.597 546.139 174.447 544.555 174.871C542.971 175.296 541.792 176.15 541.018 177.434C540.233 178.68 540.033 180.017 540.416 181.447L540.587 182.084ZM544.53 199.352C544.965 200.975 545.891 202.114 547.309 202.769C548.727 203.424 550.325 203.514 552.102 203.038C553.88 202.561 555.218 201.685 556.119 200.409C557.019 199.132 557.252 197.682 556.817 196.06L556.568 195.132C556.134 193.51 555.207 192.371 553.789 191.715C552.371 191.06 550.774 190.97 548.996 191.447C547.219 191.923 545.88 192.799 544.98 194.076C544.08 195.352 543.847 196.802 544.282 198.425L544.53 199.352ZM600.291 182.051C600.984 184.639 600.998 187.162 600.331 189.618C599.664 192.074 598.433 194.205 596.64 196.011C594.835 197.778 592.658 199.004 590.108 199.687L588.428 200.137C585.878 200.82 583.38 200.848 580.934 200.22C578.477 199.553 576.346 198.322 574.54 196.528C572.773 194.724 571.543 192.528 570.849 189.939L567.355 176.899C566.662 174.311 566.629 171.793 567.257 169.347C567.924 166.891 569.155 164.76 570.948 162.954C572.742 161.148 574.914 159.904 577.464 159.221L579.145 158.77C581.695 158.087 584.198 158.079 586.654 158.746C589.111 159.413 591.242 160.643 593.047 162.437C594.853 164.231 596.103 166.422 596.797 169.011L600.291 182.051ZM587.955 170.324C587.489 168.585 586.497 167.277 584.978 166.4C583.498 165.513 581.889 165.303 580.15 165.768C578.412 166.234 577.104 167.227 576.227 168.745C575.389 170.254 575.203 171.877 575.669 173.616L579.675 188.568C580.141 190.307 581.114 191.62 582.594 192.507C584.113 193.384 585.741 193.589 587.48 193.123C589.219 192.658 590.507 191.67 591.345 190.162C592.222 188.643 592.428 187.015 591.962 185.276L587.955 170.324ZM635.777 172.542C636.471 175.131 636.484 177.653 635.817 180.109C635.15 182.566 633.92 184.697 632.126 186.503C630.322 188.27 628.145 189.495 625.595 190.178L623.914 190.629C621.364 191.312 618.866 191.339 616.42 190.711C613.964 190.044 611.833 188.814 610.027 187.02C608.26 185.216 607.029 183.019 606.336 180.431L602.842 167.391C602.148 164.802 602.115 162.285 602.744 159.839C603.411 157.382 604.641 155.251 606.435 153.446C608.229 151.64 610.4 150.395 612.95 149.712L614.631 149.262C617.181 148.578 619.684 148.57 622.141 149.237C624.597 149.904 626.728 151.135 628.534 152.928C630.34 154.722 631.589 156.913 632.283 159.502L635.777 172.542ZM623.442 160.815C622.976 159.076 621.983 157.769 620.465 156.892C618.985 156.005 617.375 155.794 615.637 156.26C613.898 156.726 612.59 157.718 611.713 159.237C610.875 160.745 610.689 162.369 611.155 164.107L615.162 179.06C615.627 180.798 616.6 182.111 618.08 182.998C619.599 183.875 621.228 184.081 622.966 183.615C624.705 183.149 625.994 182.162 626.832 180.654C627.709 179.135 627.914 177.506 627.448 175.768L623.442 160.815ZM657.998 161.743L669.82 158.575L671.467 164.718L659.644 167.886L662.78 179.593L656.695 181.224L653.558 169.517L641.793 172.669L640.147 166.526L651.912 163.373L648.76 151.608L654.845 149.978L657.998 161.743Z" fill="#060C3C"/>
<path d="M518.91 114.4C520.461 113.985 521.905 113.965 523.242 114.341C524.575 114.699 525.726 115.424 526.695 116.517C527.66 117.592 528.369 118.977 528.823 120.672L529.331 122.565C529.785 124.26 529.865 125.823 529.572 127.255C529.275 128.668 528.641 129.872 527.67 130.866C526.695 131.842 525.432 132.538 523.882 132.954L517.445 134.678L512.473 116.125L518.91 114.4ZM515.769 117.822L519.45 131.561L523.237 130.547C524.841 130.117 525.944 129.29 526.543 128.066C527.156 126.82 527.202 125.223 526.68 123.276L526.173 121.382C525.661 119.471 524.837 118.127 523.701 117.349C522.578 116.548 521.196 116.368 519.555 116.807L515.769 117.822ZM537.113 114.306C538.934 113.818 540.383 113.816 541.459 114.301C542.554 114.78 543.285 115.705 543.652 117.076L545.573 124.243C545.66 124.567 545.797 124.791 545.985 124.915C546.168 125.021 546.367 125.045 546.584 124.987C546.998 124.875 547.379 124.638 547.726 124.275L548.226 126.141C547.71 126.666 547.064 127.032 546.289 127.24C545.513 127.447 544.878 127.386 544.384 127.054C543.884 126.705 543.513 126.148 543.269 125.382C542.596 127.34 541.204 128.602 539.094 129.167C537.58 129.573 536.357 129.553 535.426 129.107C534.508 128.638 533.858 127.691 533.476 126.267C533.177 125.149 533.231 124.197 533.639 123.411C534.042 122.608 534.872 121.883 536.129 121.237C537.386 120.591 539.186 119.954 541.53 119.326L541.19 118.054C540.943 117.135 540.501 116.567 539.864 116.352C539.221 116.118 538.386 116.139 537.359 116.414C536.385 116.675 535.678 117.067 535.239 117.591C534.799 118.114 534.671 118.719 534.855 119.404L534.942 119.728L532.454 120.395C532.35 120.152 532.252 119.86 532.161 119.517C531.991 118.886 532.084 118.223 532.44 117.529C532.795 116.835 533.361 116.21 534.14 115.653C534.914 115.079 535.823 114.651 536.869 114.371L537.113 114.306ZM542.059 121.3C540.166 121.807 538.759 122.29 537.839 122.75C536.931 123.186 536.366 123.637 536.143 124.103C535.92 124.568 535.898 125.135 536.077 125.802C536.41 127.046 537.523 127.414 539.416 126.907C540.084 126.728 540.671 126.397 541.179 125.913C541.682 125.411 542.032 124.805 542.229 124.095C542.425 123.386 542.417 122.634 542.204 121.841L542.059 121.3ZM548.651 105.446L549.282 107.799L546.631 108.509L546.001 106.156L548.651 105.446ZM550.112 111.113L553.815 124.933L551.273 125.614L547.57 111.794L550.112 111.113ZM555.731 103.549L560.949 123.022L558.407 123.703L553.189 104.23L555.731 103.549ZM571.503 119.614C571.295 121.293 571.037 122.599 570.726 123.532C570.421 124.484 570.036 125.176 569.573 125.61C569.114 126.061 568.524 126.384 567.803 126.577C567.136 126.756 566.471 126.798 565.808 126.705L565.25 124.623C565.913 124.716 566.397 124.721 566.704 124.639C567.443 124.441 567.988 124.024 568.34 123.389C568.714 122.767 568.921 121.881 568.961 120.73L559.912 108.487L562.616 107.762L569.324 116.893L569.432 116.864L570.622 105.617L573.11 104.95L571.503 119.614ZM594.935 94.0293L593.308 114.351L590.468 115.112L578.897 98.3267L581.737 97.5658L590.964 111.124L591.127 111.08L592.366 94.7178L594.935 94.0293ZM599.653 91.7797L600.283 94.1327L597.633 94.8429L597.002 92.4899L599.653 91.7797ZM601.114 97.4468L604.817 111.267L602.274 111.948L598.571 98.128L601.114 97.4468ZM610.798 94.5619C611.826 94.2865 612.78 94.2048 613.66 94.3167C614.559 94.4239 615.302 94.708 615.889 95.169C616.494 95.6252 616.891 96.2049 617.08 96.9081L617.183 97.4022L614.668 98.0761L614.602 97.8327C614.25 96.5165 613.055 96.1313 611.017 96.6773C608.998 97.2184 608.15 98.0929 608.474 99.301C608.623 99.8599 609.023 100.197 609.672 100.313C610.317 100.411 611.266 100.418 612.519 100.333C613.717 100.263 614.711 100.258 615.5 100.317C616.307 100.371 617.035 100.601 617.685 101.007C618.353 101.408 618.81 102.068 619.056 102.988C619.453 104.466 619.245 105.71 618.433 106.72C617.622 107.73 616.269 108.488 614.376 108.996L613.97 109.104C612.834 109.409 611.797 109.503 610.858 109.388C609.913 109.254 609.127 108.953 608.499 108.483C607.884 107.991 607.484 107.364 607.299 106.602L607.14 106.007L609.655 105.333L609.728 105.603C610.138 107.136 611.633 107.557 614.211 106.866C614.968 106.663 615.599 106.31 616.102 105.808C616.623 105.302 616.804 104.751 616.645 104.156C616.509 103.651 616.232 103.3 615.812 103.103C615.41 102.902 614.946 102.794 614.421 102.78C613.895 102.767 613.181 102.803 612.276 102.891C611.101 102.974 610.141 102.999 609.398 102.967C608.65 102.916 607.96 102.685 607.328 102.275C606.697 101.864 606.255 101.19 606.004 100.253C605.661 98.9725 605.898 97.8365 606.714 96.8447C607.526 95.8349 608.806 95.0957 610.555 94.6271L610.798 94.5619ZM621.126 86.026L621.756 88.379L619.106 89.0892L618.475 86.7362L621.126 86.026ZM622.586 91.6931L626.29 105.514L623.747 106.195L620.044 92.3743L622.586 91.6931ZM630.045 89.6946L633.263 88.8322L633.807 90.8607L630.588 91.7231L632.799 99.9721C632.973 100.621 633.224 101.056 633.554 101.277C633.884 101.498 634.31 101.538 634.833 101.398C635.302 101.273 635.825 100.988 636.401 100.543L636.909 102.436C636.346 102.935 635.551 103.322 634.524 103.597C633.46 103.882 632.564 103.784 631.836 103.303C631.126 102.817 630.587 101.888 630.22 100.518L628.046 92.4043L626.531 92.8101L625.988 90.7817L627.584 90.3541L627.268 85.7137L628.864 85.2861L630.045 89.6946ZM641.865 86.2377C643.794 85.7207 645.495 85.9027 646.968 86.7835C648.441 87.6643 649.455 89.1415 650.01 91.215L650.278 92.2157C650.834 94.2892 650.703 96.0732 649.886 97.5676C649.069 99.062 647.678 100.072 645.713 100.599C643.747 101.126 642.037 100.946 640.582 100.061C639.128 99.1749 638.122 97.6953 637.567 95.6217L637.299 94.621C636.743 92.5475 636.883 90.7612 637.718 89.2619C638.553 87.7627 639.935 86.7546 641.865 86.2377ZM642.408 88.2661C641.2 88.5898 640.374 89.2557 639.929 90.2639C639.484 91.2721 639.476 92.5785 639.906 94.1833L640.044 94.6971C640.464 96.2658 641.113 97.3869 641.989 98.0604C642.883 98.7291 643.943 98.8991 645.169 98.5706C646.359 98.2518 647.177 97.5882 647.622 96.5801C648.08 95.549 648.096 94.2402 647.671 92.6535L647.533 92.1396C647.113 90.571 646.456 89.4523 645.561 88.7836C644.685 88.1101 643.634 87.9376 642.408 88.2661ZM658.098 81.8879C659.378 81.5449 660.49 81.6915 661.433 82.3276C662.372 82.9458 663.008 83.8769 663.341 85.121L663.536 86.1705L661.291 86.772L661.131 86.177C660.987 85.636 660.723 85.1945 660.342 84.8522C659.96 84.51 659.533 84.2863 659.06 84.181C658.583 84.0577 658.137 84.0517 657.722 84.1628C656.856 84.3947 656.272 84.9184 655.969 85.734C655.666 86.5496 655.671 87.5434 655.985 88.7154L658.195 96.9644L655.653 97.6457L651.95 83.8252L653.762 83.3396L654.691 85.2937C654.703 84.9041 654.85 84.4782 655.132 84.0162C655.414 83.5541 655.803 83.131 656.299 82.7468C656.813 82.3578 657.413 82.0715 658.098 81.8879Z" fill="#060C3C"/>
</g>
</g>
<g filter="url(#filter3_d_72_3344)">
<g clip-path="url(#clip1_72_3344)">
<g filter="url(#filter4_d_72_3344)">
<rect x="368.825" y="430.597" width="354" height="228" rx="9" transform="rotate(-15 368.825 430.597)" fill="white"/>
</g>
<path d="M656.124 386.414C657.038 386.17 657.889 386.158 658.677 386.38C659.462 386.59 660.14 387.018 660.712 387.662C661.28 388.296 661.698 389.112 661.965 390.11L662.264 391.226C662.532 392.225 662.58 393.146 662.407 393.989C662.232 394.822 661.858 395.532 661.286 396.118C660.711 396.693 659.967 397.103 659.053 397.348L655.26 398.364L652.331 387.431L656.124 386.414ZM654.273 388.431L656.442 396.527L658.673 395.929C659.619 395.676 660.268 395.189 660.622 394.468C660.983 393.733 661.01 392.792 660.702 391.645L660.404 390.529C660.102 389.403 659.616 388.61 658.947 388.152C658.285 387.68 657.471 387.574 656.504 387.833L654.273 388.431ZM666.85 386.359C667.923 386.071 668.777 386.07 669.412 386.356C670.057 386.638 670.488 387.184 670.704 387.991L671.836 392.215C671.887 392.406 671.968 392.538 672.078 392.611C672.186 392.673 672.304 392.687 672.431 392.653C672.676 392.587 672.9 392.447 673.105 392.233L673.399 393.333C673.095 393.642 672.714 393.858 672.258 393.981C671.801 394.103 671.427 394.067 671.135 393.871C670.841 393.666 670.622 393.337 670.478 392.886C670.081 394.04 669.261 394.783 668.018 395.117C667.126 395.356 666.405 395.344 665.856 395.081C665.315 394.804 664.932 394.247 664.707 393.407C664.531 392.748 664.563 392.188 664.803 391.725C665.041 391.251 665.53 390.824 666.271 390.443C667.011 390.062 668.072 389.687 669.453 389.317L669.253 388.568C669.108 388.026 668.847 387.691 668.471 387.564C668.093 387.427 667.601 387.439 666.995 387.601C666.421 387.755 666.005 387.986 665.746 388.295C665.487 388.603 665.412 388.959 665.52 389.363L665.571 389.554L664.105 389.947C664.044 389.804 663.986 389.632 663.932 389.43C663.832 389.058 663.887 388.667 664.096 388.258C664.306 387.849 664.64 387.481 665.098 387.153C665.554 386.814 666.09 386.562 666.707 386.397L666.85 386.359ZM669.765 390.48C668.65 390.779 667.821 391.064 667.278 391.335C666.743 391.592 666.41 391.858 666.279 392.132C666.147 392.406 666.134 392.74 666.24 393.133C666.436 393.866 667.092 394.083 668.208 393.785C668.601 393.679 668.947 393.484 669.247 393.199C669.543 392.903 669.749 392.546 669.865 392.128C669.981 391.709 669.976 391.267 669.851 390.799L669.765 390.48ZM673.65 381.138L674.021 382.524L672.46 382.943L672.088 381.556L673.65 381.138ZM674.511 384.477L676.693 392.621L675.195 393.023L673.012 384.879L674.511 384.477ZM677.822 380.02L680.897 391.495L679.398 391.896L676.324 380.421L677.822 380.02ZM687.116 389.487C686.994 390.476 686.841 391.246 686.658 391.796C686.478 392.357 686.252 392.765 685.979 393.02C685.708 393.286 685.361 393.476 684.936 393.59C684.542 393.695 684.151 393.721 683.76 393.666L683.431 392.439C683.822 392.493 684.107 392.497 684.288 392.448C684.724 392.331 685.045 392.086 685.252 391.712C685.473 391.345 685.595 390.823 685.618 390.144L680.285 382.93L681.879 382.503L685.832 387.883L685.896 387.866L686.597 381.239L688.063 380.846L687.116 389.487Z" fill="#5D6180"/>
<path d="M416.766 464.209C416.366 464.504 415.809 464.748 415.092 464.94C414.402 465.125 413.796 465.106 413.272 464.884C412.749 464.662 412.38 464.152 412.167 463.354C411.855 462.191 411.457 461.327 410.972 460.761C410.5 460.191 409.845 460.019 409.007 460.244L406.654 460.874L408.198 466.635L405.114 467.461L401.386 453.546L407.613 451.877C408.938 451.522 410.12 451.496 411.157 451.797C412.208 452.096 412.897 452.853 413.223 454.07C413.353 454.557 413.374 455.066 413.284 455.597C413.195 456.129 412.999 456.616 412.697 457.059C412.409 457.499 412.046 457.82 411.608 458.025L411.636 458.126C412.281 458.156 412.911 458.422 413.524 458.925C414.136 459.427 414.582 460.199 414.861 461.24C415.26 462.728 415.833 463.487 416.581 463.519L416.766 464.209ZM409.039 457.604C409.485 457.485 409.824 457.235 410.055 456.854C410.3 456.469 410.366 456.068 410.254 455.648L410.216 455.506C410.097 455.06 409.843 454.737 409.456 454.536C409.079 454.318 408.654 454.273 408.18 454.4L405.138 455.215L405.996 458.42L409.039 457.604ZM427.059 457.428C427.302 458.335 427.29 459.157 427.024 459.895C426.755 460.619 426.301 461.226 425.664 461.716C425.037 462.188 424.305 462.537 423.466 462.761L423.142 462.848C422.181 463.105 421.262 463.134 420.382 462.935C419.503 462.736 418.738 462.318 418.089 461.68C417.45 461.025 416.989 460.17 416.706 459.116L416.549 458.527C416.27 457.486 416.25 456.52 416.49 455.63C416.729 454.739 417.174 453.99 417.822 453.381C418.484 452.769 419.295 452.334 420.255 452.077L420.58 451.99C421.418 451.765 422.243 451.733 423.054 451.892C423.861 452.039 424.57 452.385 425.18 452.932C425.787 453.465 426.21 454.178 426.449 455.07L426.862 456.612L419.763 458.514L419.893 459.001C420.074 459.677 420.423 460.192 420.938 460.547C421.463 460.885 422.071 460.961 422.76 460.776C423.382 460.61 423.824 460.31 424.085 459.878C424.356 459.428 424.401 458.866 424.219 458.189L427.059 457.428ZM420.819 454.1C420.224 454.26 419.794 454.6 419.527 455.12C419.274 455.637 419.208 456.228 419.328 456.891L423.425 455.793C423.24 455.104 422.933 454.606 422.504 454.301C422.084 453.979 421.522 453.912 420.819 454.1ZM436.089 459.161L432.742 460.058L426.334 450.666L429.478 449.823L433.588 456.157L433.69 456.13L434.083 448.59L436.963 447.818L436.089 459.161ZM449.78 451.34C450.023 452.246 450.011 453.068 449.745 453.806C449.476 454.531 449.022 455.138 448.385 455.628C447.758 456.1 447.025 456.448 446.187 456.673L445.862 456.76C444.902 457.017 443.983 457.046 443.103 456.847C442.223 456.648 441.459 456.23 440.81 455.592C440.171 454.937 439.71 454.082 439.427 453.027L439.27 452.439C438.991 451.398 438.971 450.432 439.211 449.542C439.45 448.651 439.894 447.902 440.543 447.293C441.205 446.681 442.016 446.246 442.976 445.989L443.301 445.902C444.139 445.677 444.964 445.645 445.775 445.804C446.582 445.95 447.291 446.297 447.901 446.843C448.508 447.377 448.931 448.089 449.17 448.982L449.583 450.524L442.484 452.426L442.614 452.913C442.795 453.589 443.143 454.104 443.659 454.459C444.184 454.797 444.792 454.873 445.481 454.688C446.103 454.521 446.545 454.222 446.806 453.79C447.077 453.34 447.122 452.777 446.94 452.101L449.78 451.34ZM443.54 448.012C442.945 448.171 442.515 448.512 442.248 449.032C441.995 449.549 441.929 450.14 442.049 450.803L446.146 449.705C445.961 449.016 445.654 448.518 445.225 448.213C444.805 447.891 444.243 447.824 443.54 448.012ZM453.215 445.094C453.759 443.716 454.707 442.846 456.06 442.483C457.114 442.201 458.056 442.253 458.884 442.64C459.726 443.023 460.292 443.755 460.582 444.837L462.522 452.079L459.561 452.872L457.794 446.28C457.653 445.752 457.381 445.361 456.98 445.107C456.588 444.835 456.156 444.762 455.682 444.889C455.155 445.03 454.756 445.355 454.486 445.862C454.213 446.355 454.152 446.886 454.304 447.454L456.011 453.823L453.049 454.617L450.272 444.252L452.483 443.659L453.215 445.094ZM473.933 446.412C473.987 446.615 474.09 446.754 474.24 446.83C474.387 446.892 474.535 446.903 474.684 446.863C474.819 446.827 474.961 446.76 475.109 446.663C475.256 446.565 475.372 446.483 475.456 446.417L475.945 448.243C475.521 448.661 474.964 448.962 474.274 449.147C472.922 449.51 472.005 449.226 471.524 448.297C470.937 449.512 470.028 450.285 468.797 450.615C467.743 450.897 466.794 450.847 465.952 450.464C465.124 450.077 464.565 449.343 464.275 448.261L462.335 441.019L465.296 440.226L467.063 446.818C467.204 447.346 467.471 447.745 467.862 448.017C468.264 448.272 468.701 448.336 469.175 448.209C469.702 448.068 470.102 447.75 470.376 447.257C470.646 446.75 470.705 446.212 470.553 445.644L468.846 439.275L471.808 438.481L473.933 446.412ZM486.15 441.595C486.392 442.501 486.381 443.323 486.115 444.061C485.845 444.786 485.392 445.393 484.755 445.882C484.128 446.355 483.395 446.703 482.556 446.928L482.232 447.015C481.272 447.272 480.352 447.301 479.472 447.102C478.593 446.903 477.829 446.485 477.179 445.847C476.54 445.192 476.079 444.337 475.796 443.282L475.639 442.694C475.36 441.653 475.34 440.687 475.58 439.797C475.82 438.906 476.264 438.157 476.912 437.548C477.575 436.936 478.386 436.501 479.346 436.244L479.67 436.157C480.509 435.932 481.333 435.9 482.144 436.059C482.952 436.205 483.66 436.552 484.271 437.098C484.877 437.631 485.3 438.344 485.539 439.237L485.953 440.778L478.853 442.681L478.983 443.168C479.165 443.844 479.513 444.359 480.028 444.714C480.553 445.051 481.161 445.128 481.851 444.943C482.473 444.776 482.914 444.477 483.175 444.045C483.446 443.595 483.491 443.032 483.31 442.356L486.15 441.595ZM479.91 438.267C479.315 438.426 478.884 438.766 478.618 439.287C478.365 439.804 478.298 440.394 478.418 441.058L482.516 439.96C482.331 439.27 482.024 438.773 481.594 438.468C481.174 438.145 480.613 438.078 479.91 438.267ZM495.318 437.378C495.594 438.405 496.085 439.129 496.791 439.548C497.508 439.95 498.292 440.037 499.144 439.809C499.982 439.585 500.571 439.159 500.911 438.531C501.25 437.904 501.285 437.09 501.017 436.09L497.873 436.932L497.264 434.66L503.35 433.03L504.638 437.837C504.819 438.513 504.992 439.105 505.157 439.611C505.335 440.114 505.449 440.432 505.499 440.563L503.775 441.025C503.468 440.585 503.167 440.108 502.869 439.594C502.585 440.264 502.133 440.849 501.513 441.348C500.907 441.844 500.212 442.197 499.427 442.407L499.326 442.435C498.217 442.732 497.156 442.748 496.143 442.483C495.143 442.215 494.268 441.681 493.518 440.882C492.781 440.079 492.246 439.056 491.913 437.812L491.38 435.824C491.047 434.58 491.012 433.422 491.276 432.352C491.54 431.281 492.064 430.372 492.85 429.625C493.649 428.875 494.637 428.342 495.813 428.027L496.097 427.951C497.111 427.679 498.096 427.647 499.05 427.855C500.001 428.05 500.825 428.474 501.522 429.128C502.215 429.768 502.699 430.602 502.975 431.63L500.013 432.424C499.778 431.545 499.343 430.951 498.71 430.642C498.076 430.334 497.367 430.285 496.583 430.495C495.731 430.723 495.111 431.194 494.722 431.906C494.33 432.606 494.271 433.469 494.547 434.497L495.318 437.378ZM512.054 431.502C511.942 431.082 511.731 430.755 511.422 430.519C511.108 430.27 510.701 430.212 510.201 430.346C509.728 430.473 509.413 430.76 509.258 431.207C509.112 431.638 509.114 432.13 509.262 432.685L510.98 439.094L508.059 439.877L505.282 429.512L507.472 428.925L508.245 430.348C508.259 430.185 508.338 429.939 508.482 429.611C508.64 429.279 508.897 428.942 509.255 428.599C509.626 428.254 510.102 428.003 510.684 427.847C511.617 427.597 512.411 427.696 513.068 428.143C513.737 428.587 514.201 429.289 514.458 430.249C514.512 430.452 514.553 430.658 514.581 430.868C514.621 431.075 514.646 431.22 514.654 431.305L512.179 431.968L512.054 431.502ZM526.674 429.65C526.953 430.691 526.972 431.657 526.733 432.547C526.506 433.434 526.062 434.184 525.4 434.796C524.738 435.408 523.927 435.843 522.967 436.1L522.642 436.187C521.682 436.444 520.762 436.473 519.883 436.274C519.003 436.075 518.237 435.65 517.584 434.999C516.945 434.344 516.486 433.496 516.207 432.454L516.049 431.866C515.77 430.825 515.744 429.861 515.97 428.974C516.21 428.084 516.661 427.332 517.323 426.72C517.985 426.108 518.796 425.673 519.756 425.416L520.081 425.329C521.041 425.072 521.961 425.043 522.84 425.242C523.72 425.441 524.479 425.868 525.118 426.523C525.771 427.174 526.237 428.02 526.516 429.062L526.674 429.65ZM523.373 429.339C523.152 428.514 522.774 427.941 522.238 427.621C521.717 427.297 521.125 427.223 520.462 427.401C519.799 427.578 519.316 427.94 519.013 428.485C518.723 429.026 518.689 429.709 518.91 430.534L519.35 432.177C519.571 433.002 519.943 433.577 520.464 433.901C520.999 434.221 521.598 434.293 522.261 434.115C522.924 433.938 523.4 433.578 523.69 433.037C523.993 432.492 524.034 431.807 523.813 430.982L523.373 429.339ZM535.554 426.314C535.512 429.079 535.474 431.154 535.439 432.541L532.133 433.427L526.191 423.909L529.254 423.088L532.757 429.02L532.878 428.987C532.897 427.649 532.917 426.643 532.94 425.971L533.007 422.083L535.968 421.289L539.491 427.215L539.613 427.183C539.663 424.126 539.693 421.828 539.701 420.289L542.581 419.517L542.194 430.731L538.928 431.606L535.675 426.281L535.554 426.314ZM552.395 427.802C552.154 427.982 551.819 428.166 551.391 428.353C550.98 428.551 550.605 428.694 550.267 428.785C549.226 429.064 548.382 429.051 547.735 428.746C547.088 428.441 546.625 427.768 546.346 426.727L544.835 421.088L543.699 421.392L543.155 419.364L544.393 419.032L544.541 415.448L546.367 414.959L547.253 418.266L549.667 417.619L550.21 419.647L547.796 420.294L549.171 425.426C549.316 425.967 549.516 426.305 549.769 426.44C550.036 426.571 550.346 426.59 550.697 426.496C550.86 426.452 551.062 426.369 551.304 426.246C551.547 426.123 551.74 426.006 551.884 425.895L552.395 427.802ZM554.809 417.328C555.376 416.307 556.227 415.644 557.363 415.339C558.418 415.057 559.359 415.109 560.188 415.496C561.029 415.879 561.595 416.611 561.885 417.693L563.826 424.935L560.864 425.728L559.098 419.136C558.956 418.608 558.685 418.217 558.283 417.962C557.891 417.691 557.459 417.618 556.986 417.745C556.458 417.886 556.06 418.21 555.79 418.718C555.516 419.211 555.455 419.742 555.608 420.31L557.314 426.679L554.353 427.473L550.439 412.868L553.401 412.074L554.809 417.328Z" fill="#060C3C"/>
<path d="M436.209 542.987L462.289 535.998L482.477 611.341L456.397 618.329L436.209 542.987Z" fill="#9374FF"/>
<path d="M474.601 489.218L500.681 482.23L531.739 598.141L505.659 605.129L474.601 489.218Z" fill="#FFDC60"/>
<path d="M539.004 532.525L565.084 525.537L581.002 584.941L554.922 591.929L539.004 532.525Z" fill="#9374FF"/>
<path d="M580.89 491.796L606.97 484.808L630.264 571.741L604.184 578.729L580.89 491.796Z" fill="#FFDC60"/>
<path d="M644.129 530.756L670.209 523.768L679.526 558.542L653.446 565.53L644.129 530.756Z" fill="#9374FF"/>
<path d="M675.92 452.357L702 445.369L728.788 545.342L702.708 552.33L675.92 452.357Z" fill="#FFDC60"/>
</g>
</g>
<g filter="url(#filter5_d_72_3344)">
<g clip-path="url(#clip2_72_3344)">
<g filter="url(#filter6_d_72_3344)">
<rect x="44" y="86.5874" width="180" height="176" rx="6" transform="rotate(-15 44 86.5874)" fill="white"/>
</g>
<path d="M71.3192 103.195C71.2274 102.852 71.0209 102.622 70.6997 102.505C70.3761 102.38 69.9754 102.381 69.4976 102.509C69.0017 102.642 68.6358 102.827 68.3998 103.064C68.1704 103.289 68.0907 103.533 68.1608 103.794C68.2212 104.02 68.3576 104.186 68.5699 104.294C68.7799 104.392 69.0276 104.451 69.3132 104.471C69.6078 104.489 69.9995 104.49 70.4883 104.475C71.2079 104.456 71.8071 104.475 72.2857 104.53C72.7734 104.583 73.2187 104.749 73.6219 105.027C74.0341 105.303 74.3211 105.743 74.4829 106.347C74.7655 107.402 74.6307 108.269 74.0784 108.948C73.5327 109.616 72.6648 110.11 71.4748 110.429C70.393 110.719 69.4331 110.725 68.5953 110.447C67.7641 110.157 67.2193 109.53 66.9608 108.566L66.8946 108.264L68.8689 107.735L68.9134 107.955C69.0197 108.352 69.253 108.628 69.6133 108.782C69.9712 108.928 70.4206 108.929 70.9615 108.784C71.5926 108.614 72.0168 108.395 72.2341 108.124C72.4604 107.851 72.5325 107.561 72.4504 107.254C72.3876 107.02 72.2512 106.853 72.0413 106.755C71.8379 106.645 71.5947 106.585 71.3115 106.574C71.0349 106.551 70.6522 106.547 70.1634 106.562C69.4324 106.575 68.8275 106.553 68.3489 106.498C67.8703 106.443 67.4225 106.268 67.0055 105.974C66.5885 105.68 66.2942 105.213 66.1227 104.572C65.9633 103.977 65.9903 103.429 66.2037 102.927C66.4171 102.426 66.7677 102.003 67.2555 101.66C67.7499 101.305 68.3352 101.037 69.0113 100.856C70.0481 100.578 70.9571 100.581 71.7384 100.865C72.5173 101.139 73.0276 101.727 73.2691 102.629L73.3126 102.791L71.3518 103.316L71.3192 103.195ZM79.6784 103.085C79.5963 102.779 79.4307 102.557 79.1816 102.421C78.9416 102.283 78.6052 102.271 78.1725 102.387C77.92 102.455 77.7157 102.558 77.5596 102.696C77.401 102.826 77.2891 102.967 77.2237 103.12C77.1674 103.27 77.1537 103.399 77.1827 103.508L77.2117 103.616L75.3049 104.127C75.2579 104.023 75.2272 103.945 75.2127 103.891C75.1088 103.503 75.142 103.122 75.3123 102.748C75.4916 102.371 75.7882 102.036 76.2021 101.741C76.616 101.447 77.1204 101.22 77.7155 101.06L77.9994 100.984C78.9731 100.723 79.7643 100.719 80.373 100.972C80.9793 101.215 81.3719 101.67 81.5506 102.337L82.4058 105.529C82.4492 105.691 82.5179 105.803 82.6118 105.865C82.7146 105.924 82.8202 105.939 82.9284 105.91C83.0185 105.886 83.1129 105.842 83.2114 105.777C83.3099 105.712 83.3871 105.657 83.4429 105.613L83.7691 106.83C83.4862 107.109 83.1149 107.31 82.6551 107.433C82.1593 107.566 81.7541 107.568 81.4395 107.44C81.1225 107.303 80.8919 107.055 80.7478 106.698C80.3245 107.642 79.653 108.237 78.7335 108.484C78.0483 108.667 77.4474 108.679 76.9308 108.518C76.4141 108.356 76.0507 107.884 75.8406 107.099C75.6691 106.459 75.7189 105.924 75.9902 105.494C76.268 105.052 76.7158 104.686 77.3335 104.395C77.9512 104.104 78.7739 103.82 79.8016 103.545L79.6784 103.085ZM80.0988 104.654C79.2423 104.883 78.6252 105.141 78.2473 105.425C77.8761 105.699 77.7412 106.025 77.8427 106.404C77.9224 106.701 78.0603 106.891 78.2564 106.974C78.4591 107.045 78.7317 107.035 79.0743 106.943C79.3087 106.88 79.5262 106.754 79.7268 106.565C79.9274 106.376 80.0729 106.144 80.1633 105.869C80.2628 105.591 80.2739 105.308 80.1966 105.019L80.0988 104.654ZM84.7779 106.719L82.169 96.9828L84.1434 96.4537L86.7523 106.19L84.7779 106.719ZM94.2726 101.407C94.4345 102.011 94.4267 102.559 94.2494 103.051C94.0696 103.534 93.7673 103.939 93.3427 104.265C92.9246 104.58 92.4361 104.812 91.8772 104.962L91.6608 105.02C91.0207 105.191 90.4075 105.211 89.8211 105.078C89.2348 104.945 88.7252 104.666 88.2925 104.241C87.8663 103.805 87.559 103.235 87.3706 102.532L87.2655 102.139C87.0795 101.445 87.0664 100.801 87.2262 100.208C87.386 99.6142 87.6821 99.1145 88.1145 98.7088C88.5559 98.3006 89.0966 98.0108 89.7367 97.8393L89.9531 97.7813C90.512 97.6315 91.0618 97.6098 91.6024 97.7162C92.1406 97.8136 92.6132 98.0445 93.02 98.4089C93.4245 98.7643 93.7064 99.2396 93.8658 99.8346L94.1412 100.862L89.4082 102.131L89.4952 102.455C89.6159 102.906 89.8481 103.249 90.1917 103.486C90.5419 103.711 90.9468 103.762 91.4066 103.639C91.8213 103.528 92.1157 103.328 92.2897 103.04C92.4703 102.74 92.5002 102.365 92.3794 101.914L94.2726 101.407ZM90.1126 99.188C89.7159 99.2942 89.4288 99.5209 89.2513 99.8681C89.0827 100.213 89.0384 100.606 89.1183 101.049L91.85 100.317C91.7268 99.857 91.5219 99.5254 91.2355 99.3219C90.9557 99.107 90.5814 99.0623 90.1126 99.188ZM97.1309 101.148C97.2154 101.464 97.4168 101.656 97.7349 101.726C98.0506 101.786 98.4158 101.761 98.8305 101.649C99.1911 101.553 99.4967 101.413 99.7472 101.23C100.007 101.044 100.105 100.835 100.042 100.6C99.9746 100.348 99.7955 100.202 99.5051 100.164C99.2147 100.126 98.7836 100.14 98.2119 100.206C97.6084 100.262 97.1061 100.28 96.7051 100.262C96.304 100.244 95.9296 100.127 95.5819 99.911C95.2431 99.6926 95.0049 99.3265 94.8672 98.8126C94.7416 98.3438 94.7706 97.9109 94.9541 97.5139C95.1442 97.1054 95.4428 96.7596 95.8501 96.4766C96.264 96.1821 96.7414 95.9624 97.2823 95.8174L97.5528 95.745C98.0306 95.617 98.5031 95.5773 98.9703 95.626C99.4441 95.6634 99.8504 95.7912 100.189 96.0097C100.525 96.2191 100.742 96.5041 100.839 96.8647C100.858 96.9368 100.871 97.0057 100.879 97.0712C100.885 97.1277 100.889 97.1605 100.891 97.1695L99.1603 97.6333C99.0153 97.0924 98.5282 96.933 97.6988 97.1553C97.3201 97.2567 97.0281 97.3929 96.8227 97.5639C96.6263 97.7325 96.5535 97.9114 96.6042 98.1008C96.6646 98.3262 96.8286 98.4513 97.0961 98.4762C97.3727 98.4988 97.7878 98.4793 98.3415 98.4179C98.9721 98.3553 99.4879 98.333 99.8889 98.3511C100.297 98.3579 100.68 98.4725 101.039 98.6952C101.396 98.9088 101.646 99.2815 101.788 99.8134C102.008 100.634 101.879 101.306 101.401 101.83C100.921 102.346 100.234 102.723 99.3416 102.962L98.8954 103.081C98.3364 103.231 97.8131 103.28 97.3255 103.227C96.8378 103.174 96.4255 103.023 96.0885 102.776C95.7606 102.525 95.5422 102.197 95.4335 101.792L95.3746 101.517L97.1055 101.054L97.1309 101.148ZM109.92 92.8514C109.829 92.5088 109.622 92.2791 109.301 92.1623C108.977 92.0364 108.577 92.0375 108.099 92.1655C107.603 92.2984 107.237 92.4834 107.001 92.7206C106.772 92.9463 106.692 93.1899 106.762 93.4513C106.822 93.6767 106.959 93.8431 107.171 93.9504C107.381 94.0488 107.629 94.108 107.914 94.1281C108.209 94.1458 108.601 94.1471 109.089 94.1321C109.809 94.1132 110.408 94.1314 110.887 94.1868C111.375 94.2397 111.82 94.4054 112.223 94.6839C112.635 94.9599 112.922 95.4 113.084 96.004C113.367 97.0588 113.232 97.9259 112.68 98.6053C112.134 99.2733 111.266 99.7668 110.076 100.086C108.994 100.376 108.034 100.381 107.197 100.104C106.365 99.8141 105.82 99.1871 105.562 98.2225L105.496 97.9213L107.47 97.3923L107.515 97.6123C107.621 98.009 107.854 98.2847 108.214 98.4393C108.572 98.585 109.022 98.5854 109.563 98.4404C110.194 98.2713 110.618 98.0514 110.835 97.7806C111.062 97.5074 111.134 97.2175 111.052 96.911C110.989 96.6766 110.852 96.5102 110.642 96.4118C110.439 96.3021 110.196 96.2416 109.913 96.2306C109.636 96.208 109.253 96.2043 108.765 96.2193C108.034 96.2316 107.429 96.2101 106.95 96.1547C106.471 96.0994 106.024 95.9247 105.607 95.6306C105.19 95.3365 104.895 94.8694 104.724 94.2293C104.564 93.6343 104.591 93.086 104.805 92.5843C105.018 92.0826 105.369 91.6602 105.857 91.3169C106.351 90.9622 106.936 90.6942 107.612 90.5131C108.649 90.2353 109.558 90.2381 110.34 90.5215C111.119 90.7959 111.629 91.3839 111.87 92.2855L111.914 92.4477L109.953 92.9731L109.92 92.8514ZM119.01 97.4163C118.849 97.5368 118.626 97.6594 118.341 97.7842C118.067 97.9156 117.817 98.0115 117.592 98.0718C116.897 98.2578 116.335 98.2492 115.903 98.0459C115.472 97.8426 115.163 97.3939 114.977 96.6997L113.97 92.9403L113.213 93.1432L112.85 91.7909L113.675 91.5699L113.774 89.1809L114.991 88.8547L115.582 91.059L117.191 90.6278L117.554 91.9801L115.944 92.4113L116.861 95.8326C116.958 96.1932 117.091 96.4185 117.26 96.5085C117.438 96.596 117.644 96.6084 117.878 96.5456C117.987 96.5166 118.121 96.4612 118.283 96.3792C118.445 96.2972 118.574 96.2192 118.67 96.1452L119.01 97.4163ZM123.298 91.3975C123.216 91.091 123.05 90.8697 122.801 90.7335C122.561 90.5949 122.225 90.5836 121.792 90.6995C121.54 90.7671 121.335 90.8702 121.179 91.0087C121.02 91.1381 120.909 91.2792 120.843 91.432C120.787 91.5824 120.773 91.7117 120.802 91.8199L120.831 91.928L118.924 92.4389C118.877 92.3356 118.847 92.2569 118.832 92.2028C118.728 91.8151 118.761 91.4342 118.932 91.0601C119.111 90.6835 119.408 90.3479 119.822 90.0535C120.235 89.759 120.74 89.532 121.335 89.3726L121.619 89.2965C122.593 89.0356 123.384 89.0313 123.992 89.2837C124.599 89.5271 124.991 89.9823 125.17 90.6495L126.025 93.8409C126.069 94.0032 126.137 94.1152 126.231 94.177C126.334 94.2364 126.44 94.2516 126.548 94.2226C126.638 94.1985 126.732 94.1539 126.831 94.0888C126.929 94.0238 127.007 93.9693 127.062 93.9253L127.389 95.1424C127.106 95.4211 126.734 95.622 126.275 95.7452C125.779 95.8781 125.374 95.8804 125.059 95.7521C124.742 95.6148 124.511 95.3674 124.367 95.0098C123.944 95.9542 123.273 96.5496 122.353 96.796C121.668 96.9796 121.067 96.9909 120.55 96.8298C120.034 96.6687 119.67 96.1959 119.46 95.4116C119.289 94.7715 119.338 94.2364 119.61 93.8062C119.887 93.3646 120.335 92.9982 120.953 92.7071C121.571 92.4159 122.393 92.1327 123.421 91.8573L123.298 91.3975ZM123.718 92.9662C122.862 93.1957 122.245 93.4528 121.867 93.7377C121.496 94.011 121.361 94.3371 121.462 94.7157C121.542 95.0132 121.68 95.2033 121.876 95.2861C122.079 95.3574 122.351 95.3471 122.694 95.2553C122.928 95.1925 123.146 95.0666 123.346 94.8776C123.547 94.6886 123.692 94.4563 123.783 94.1809C123.882 93.903 123.893 93.6198 123.816 93.3313L123.718 92.9662ZM132.111 93.9061C131.95 94.0265 131.726 94.1491 131.441 94.2739C131.167 94.4053 130.917 94.5012 130.692 94.5616C129.998 94.7476 129.435 94.739 129.004 94.5357C128.572 94.3324 128.264 93.8836 128.078 93.1895L127.07 89.4301L126.313 89.633L125.951 88.2807L126.776 88.0597L126.875 85.6706L128.092 85.3445L128.682 87.5488L130.292 87.1176L130.654 88.4699L129.045 88.9011L129.962 92.3224C130.058 92.683 130.191 92.9083 130.36 92.9983C130.538 93.0858 130.744 93.0982 130.979 93.0354C131.087 93.0064 131.222 92.9509 131.383 92.869C131.545 92.787 131.674 92.709 131.77 92.6349L132.111 93.9061ZM134.095 91.2439C134.179 91.5595 134.38 91.7519 134.699 91.8213C135.014 91.8816 135.379 91.8562 135.794 91.7451C136.155 91.6485 136.46 91.5086 136.711 91.3256C136.97 91.1401 137.069 90.9301 137.006 90.6957C136.938 90.4433 136.759 90.298 136.469 90.2599C136.178 90.2218 135.747 90.2358 135.176 90.302C134.572 90.3575 134.07 90.3761 133.669 90.3579C133.268 90.3398 132.893 90.2227 132.546 90.0067C132.207 89.7882 131.969 89.4221 131.831 88.9082C131.705 88.4394 131.734 88.0065 131.918 87.6095C132.108 87.201 132.406 86.8553 132.814 86.5722C133.228 86.2777 133.705 86.058 134.246 85.9131L134.516 85.8406C134.994 85.7126 135.467 85.6729 135.934 85.7217C136.408 85.759 136.814 85.8869 137.153 86.1053C137.489 86.3147 137.706 86.5997 137.802 86.9603C137.822 87.0325 137.835 87.1013 137.843 87.1668C137.849 87.2233 137.852 87.2561 137.855 87.2651L136.124 87.7289C135.979 87.188 135.492 87.0286 134.662 87.2509C134.284 87.3523 133.992 87.4886 133.786 87.6595C133.59 87.8281 133.517 88.0071 133.568 88.1964C133.628 88.4218 133.792 88.5469 134.06 88.5719C134.336 88.5944 134.751 88.5749 135.305 88.5136C135.936 88.4509 136.452 88.4286 136.853 88.4468C137.26 88.4535 137.644 88.5682 138.003 88.7908C138.36 89.0044 138.609 89.3772 138.752 89.9091C138.972 90.7295 138.842 91.4018 138.365 91.926C137.884 92.4412 137.198 92.8184 136.305 93.0575L135.859 93.1771C135.3 93.3269 134.777 93.3753 134.289 93.3224C133.801 93.2695 133.389 93.119 133.052 92.8711C132.724 92.6208 132.506 92.2928 132.397 91.8871L132.338 91.6131L134.069 91.1493L134.095 91.2439Z" fill="#060C3C"/>
<rect x="121.182" y="204.633" width="122" height="6" rx="3" transform="rotate(-15 121.182 204.633)" fill="#B4B6C4"/>
<rect x="92.2047" y="212.398" width="20" height="6" rx="3" transform="rotate(-15 92.2047 212.398)" fill="#B4B6C4"/>
<rect x="124.806" y="218.156" width="122" height="6" rx="3" transform="rotate(-15 124.806 218.156)" fill="#B4B6C4"/>
<rect x="95.8282" y="225.921" width="20" height="6" rx="3" transform="rotate(-15 95.8282 225.921)" fill="#B4B6C4"/>
<path d="M150.328 111.575C144.001 111.906 137.942 114.232 133.018 118.219C128.095 122.206 124.56 127.65 122.92 133.769C121.28 139.889 121.62 146.37 123.89 152.285C126.161 158.199 130.245 163.243 135.558 166.694C140.872 170.144 147.141 171.824 153.468 171.493C159.794 171.161 165.854 168.835 170.777 164.848C175.701 160.861 179.236 155.418 180.875 149.298C182.515 143.179 182.175 136.697 179.905 130.783L151.898 141.534L150.328 111.575Z" fill="#9374FF"/>
<path d="M154.283 103.431C161.036 103.188 167.693 105.089 173.299 108.862C178.906 112.635 183.174 118.086 185.492 124.433L155.433 135.41L154.283 103.431Z" fill="#FFDC60"/>
</g>
</g>
<defs>
<filter id="filter0_dd_72_3344" x="-8" y="96" width="725.154" height="589.389" filterUnits="userSpaceOnUse" color-interpolation-filters="sRGB">
<feFlood flood-opacity="0" result="BackgroundImageFix"/>
<feColorMatrix in="SourceAlpha" type="matrix" values="0 0 0 0 0 0 0 0 0 0 0 0 0 0 0 0 0 0 127 0" result="hardAlpha"/>
<feMorphology radius="4" operator="erode" in="SourceAlpha" result="effect1_dropShadow_72_3344"/>
<feOffset dy="8"/>
<feGaussianBlur stdDeviation="5.5"/>
<feColorMatrix type="matrix" values="0 0 0 0 0.176471 0 0 0 0 0.211765 0 0 0 0 0.262745 0 0 0 0.04 0"/>
<feBlend mode="normal" in2="BackgroundImageFix" result="effect1_dropShadow_72_3344"/>
<feColorMatrix in="SourceAlpha" type="matrix" values="0 0 0 0 0 0 0 0 0 0 0 0 0 0 0 0 0 0 127 0" result="hardAlpha"/>
<feMorphology radius="4" operator="erode" in="SourceAlpha" result="effect2_dropShadow_72_3344"/>
<feOffset dy="20"/>
<feGaussianBlur stdDeviation="12"/>
<feColorMatrix type="matrix" values="0 0 0 0 0.176471 0 0 0 0 0.211765 0 0 0 0 0.262745 0 0 0 0.04 0"/>
<feBlend mode="normal" in2="effect1_dropShadow_72_3344" result="effect2_dropShadow_72_3344"/>
<feBlend mode="normal" in="SourceGraphic" in2="effect2_dropShadow_72_3344" result="shape"/>
</filter>
<filter id="filter1_d_72_3344" x="416" y="-2" width="401.109" height="362.925" filterUnits="userSpaceOnUse" color-interpolation-filters="sRGB">
<feFlood flood-opacity="0" result="BackgroundImageFix"/>
<feColorMatrix in="SourceAlpha" type="matrix" values="0 0 0 0 0 0 0 0 0 0 0 0 0 0 0 0 0 0 127 0" result="hardAlpha"/>
<feMorphology radius="12" operator="erode" in="SourceAlpha" result="effect1_dropShadow_72_3344"/>
<feOffset dy="32"/>
<feGaussianBlur stdDeviation="32"/>
<feColorMatrix type="matrix" values="0 0 0 0 0.176471 0 0 0 0 0.211765 0 0 0 0 0.262745 0 0 0 0.14 0"/>
<feBlend mode="normal" in2="BackgroundImageFix" result="effect1_dropShadow_72_3344"/>
<feBlend mode="normal" in="SourceGraphic" in2="effect1_dropShadow_72_3344" result="shape"/>
</filter>
<filter id="filter2_d_72_3344" x="394.694" y="-39.306" width="443.721" height="405.537" filterUnits="userSpaceOnUse" color-interpolation-filters="sRGB">
<feFlood flood-opacity="0" result="BackgroundImageFix"/>
<feColorMatrix in="SourceAlpha" type="matrix" values="0 0 0 0 0 0 0 0 0 0 0 0 0 0 0 0 0 0 127 0" result="hardAlpha"/>
<feMorphology radius="4" operator="erode" in="SourceAlpha" result="effect1_dropShadow_72_3344"/>
<feOffset dy="16"/>
<feGaussianBlur stdDeviation="40"/>
<feColorMatrix type="matrix" values="0 0 0 0 0.0235294 0 0 0 0 0.0470588 0 0 0 0 0.231373 0 0 0 0.08 0"/>
<feBlend mode="normal" in2="BackgroundImageFix" result="effect1_dropShadow_72_3344"/>
<feBlend mode="normal" in="SourceGraphic" in2="effect1_dropShadow_72_3344" result="shape"/>
</filter>
<filter id="filter3_d_72_3344" x="330.825" y="324.975" width="476.948" height="387.853" filterUnits="userSpaceOnUse" color-interpolation-filters="sRGB">
<feFlood flood-opacity="0" result="BackgroundImageFix"/>
<feColorMatrix in="SourceAlpha" type="matrix" values="0 0 0 0 0 0 0 0 0 0 0 0 0 0 0 0 0 0 127 0" result="hardAlpha"/>
<feMorphology radius="12" operator="erode" in="SourceAlpha" result="effect1_dropShadow_72_3344"/>
<feOffset dy="24"/>
<feGaussianBlur stdDeviation="25"/>
<feColorMatrix type="matrix" values="0 0 0 0 0.176471 0 0 0 0 0.211765 0 0 0 0 0.262745 0 0 0 0.12 0"/>
<feBlend mode="normal" in2="BackgroundImageFix" result="effect1_dropShadow_72_3344"/>
<feBlend mode="normal" in="SourceGraphic" in2="effect1_dropShadow_72_3344" result="shape"/>
</filter>
<filter id="filter4_d_72_3344" x="313.845" y="295.996" width="510.907" height="421.812" filterUnits="userSpaceOnUse" color-interpolation-filters="sRGB">
<feFlood flood-opacity="0" result="BackgroundImageFix"/>
<feColorMatrix in="SourceAlpha" type="matrix" values="0 0 0 0 0 0 0 0 0 0 0 0 0 0 0 0 0 0 127 0" result="hardAlpha"/>
<feMorphology radius="3" operator="erode" in="SourceAlpha" result="effect1_dropShadow_72_3344"/>
<feOffset dy="12"/>
<feGaussianBlur stdDeviation="30"/>
<feColorMatrix type="matrix" values="0 0 0 0 0.0235294 0 0 0 0 0.0470588 0 0 0 0 0.231373 0 0 0 0.08 0"/>
<feBlend mode="normal" in2="BackgroundImageFix" result="effect1_dropShadow_72_3344"/>
<feBlend mode="normal" in="SourceGraphic" in2="effect1_dropShadow_72_3344" result="shape"/>
</filter>
<filter id="filter5_d_72_3344" x="6" y="26" width="295.419" height="292.59" filterUnits="userSpaceOnUse" color-interpolation-filters="sRGB">
<feFlood flood-opacity="0" result="BackgroundImageFix"/>
<feColorMatrix in="SourceAlpha" type="matrix" values="0 0 0 0 0 0 0 0 0 0 0 0 0 0 0 0 0 0 127 0" result="hardAlpha"/>
<feMorphology radius="12" operator="erode" in="SourceAlpha" result="effect1_dropShadow_72_3344"/>
<feOffset dy="24"/>
<feGaussianBlur stdDeviation="25"/>
<feColorMatrix type="matrix" values="0 0 0 0 0.176471 0 0 0 0 0.211765 0 0 0 0 0.262745 0 0 0 0.12 0"/>
<feBlend mode="normal" in2="BackgroundImageFix" result="effect1_dropShadow_72_3344"/>
<feBlend mode="normal" in="SourceGraphic" in2="effect1_dropShadow_72_3344" result="shape"/>
</filter>
<filter id="filter6_d_72_3344" x="7.34699" y="11.3469" width="292.725" height="289.896" filterUnits="userSpaceOnUse" color-interpolation-filters="sRGB">
<feFlood flood-opacity="0" result="BackgroundImageFix"/>
<feColorMatrix in="SourceAlpha" type="matrix" values="0 0 0 0 0 0 0 0 0 0 0 0 0 0 0 0 0 0 127 0" result="hardAlpha"/>
<feMorphology radius="2" operator="erode" in="SourceAlpha" result="effect1_dropShadow_72_3344"/>
<feOffset dy="8"/>
<feGaussianBlur stdDeviation="20"/>
<feColorMatrix type="matrix" values="0 0 0 0 0.0235294 0 0 0 0 0.0470588 0 0 0 0 0.231373 0 0 0 0.08 0"/>
<feBlend mode="normal" in2="BackgroundImageFix" result="effect1_dropShadow_72_3344"/>
<feBlend mode="normal" in="SourceGraphic" in2="effect1_dropShadow_72_3344" result="shape"/>
</filter>
<linearGradient id="paint0_linear_72_3344" x1="352.9" y1="236.933" x2="420.617" y2="489.656" gradientUnits="userSpaceOnUse">
<stop stop-color="#9374FF"/>
<stop offset="1" stop-color="#9374FF" stop-opacity="0"/>
</linearGradient>
<clipPath id="clip0_72_3344">
<rect x="468" y="83.74" width="254" height="200" rx="40" transform="rotate(-15 468 83.74)" fill="white"/>
</clipPath>
<clipPath id="clip1_72_3344">
<rect x="368.825" y="430.597" width="354" height="228" rx="30" transform="rotate(-15 368.825 430.597)" fill="white"/>
</clipPath>
<clipPath id="clip2_72_3344">
<rect x="44" y="86.5874" width="180" height="176" rx="20" transform="rotate(-15 44 86.5874)" fill="white"/>
</clipPath>
</defs>
</svg>
